<svg width="48" height="48" viewBox="0 0 48 48" fill="none" xmlns="http://www.w3.org/2000/svg">
<g clip-path="url(#clip0)">
<path d="M35.1165 11.3827L26.3732 2.77837C23.6633 0.111557 19.3151 0.111557 16.6053 2.77837L7.862 11.3827L6.33466 13.6549H36.0032L35.1165 11.3827Z" fill="#FF7C7C"/>
<path d="M47.2296 36.4273L42.4869 31.0067C41.021 29.3313 38.4146 29.3313 36.9487 31.0067L32.206 36.4273L31.946 36.8722C31.7643 37.1833 31.9886 37.5742 32.349 37.5742H47.3795C47.6101 37.5742 47.7536 37.324 47.6374 37.1249L47.2296 36.4273Z" fill="#A64B19"/>
<path d="M32.9628 44.5037L32.1448 38.6546L31.5358 37.5742C31.2468 37.0614 31.6173 36.4273 32.2059 36.4273H47.2296C47.8182 36.4273 48.1888 37.0614 47.8997 37.5742L47.2907 38.6546L46.4728 44.5037C46.2683 45.9653 45.0182 47.0529 43.5423 47.0529H35.8932C34.4174 47.0529 33.1671 45.9653 32.9628 44.5037Z" fill="#FEC263"/>
<path d="M36.9487 31.0067L32.206 36.4272L31.9461 36.8722C31.7644 37.1832 31.9887 37.5741 32.349 37.5741H38.4746L38.4751 29.9645C37.9068 30.1678 37.3783 30.5156 36.9487 31.0067Z" fill="#C86C35"/>
<path d="M32.2059 36.4273C31.6174 36.4273 31.2468 37.0614 31.5358 37.5742L32.1448 38.6546L32.9628 44.5036C33.1672 45.9653 34.4174 47.0528 35.8933 47.0528H38.2271C38.4942 46.7802 38.7357 46.4772 38.9426 46.1428C39.8939 44.6061 39.9725 42.6524 39.1478 41.044L38.4746 39.731V36.4272H32.2059V36.4273Z" fill="#D5A75C"/>
<path d="M35.3386 17.0261L35.6445 17.8213C36.3052 19.539 36.644 21.3636 36.644 23.2039V39.8294C36.644 40.0553 36.6978 40.278 36.8009 40.479L37.519 41.8793C38.056 42.9266 38.0056 44.1786 37.3862 45.1793C36.63 46.4007 35.1808 47.0059 33.7807 46.6851L31.9836 46.2733C31.9584 46.2675 31.932 46.2692 31.9077 46.2781C30.2055 46.9022 28.4066 47.2217 26.5936 47.2217H6.72504L6.33466 23.2039C6.33466 21.3636 6.6734 19.5389 7.33413 17.8213L7.64003 17.0261L10.0021 12.9462H33.2864L35.3386 17.0261Z" fill="#FFD07D"/>
<path d="M35.2252 18.9529C35.4896 18.9529 35.75 18.9242 36.0032 18.8699C35.8966 18.5166 35.7774 18.1666 35.6445 17.8212L35.3386 17.0259L33.2864 12.946H17.0796H14.6646H10.002L7.63993 17.0259L7.33404 17.8212C6.67341 19.5389 6.33456 21.3635 6.33456 23.2038L6.72495 47.2216H13.8026L13.4122 23.2038C13.4122 22.9951 13.4165 22.7868 13.4253 22.5786C13.5105 20.5456 15.2086 18.9528 17.2433 18.9528H35.2252V18.9529Z" fill="#FFBE62"/>
<path d="M36.0032 13.6549L35.1166 11.3827L33.1586 9.45578H18.082C16.974 9.45578 16.4236 8.11207 17.2135 7.33486L21.8435 2.77835C22.5145 2.118 23.2873 1.62154 24.1095 1.28819C21.6114 0.275418 18.6442 0.77188 16.6053 2.77835L7.862 11.3827L6.33466 13.6549H11.5728L12.4518 12.3472V13.6549H36.0032Z" fill="#FB554A"/>
<path d="M34.8383 11.3827H7.86201C7.00927 11.3827 6.2783 11.9919 6.12454 12.8307L5.73762 14.9413C5.53876 16.0263 6.37195 17.0262 7.47509 17.0262H35.2251C36.3283 17.0262 37.1615 16.0263 36.9626 14.9413L36.5757 12.8307C36.422 11.9919 35.6911 11.3827 34.8383 11.3827Z" fill="#FFD07D"/>
<path d="M14.0698 15.1297C12.3322 15.1297 11.0197 13.5548 11.333 11.8456L11.4179 11.3827H7.862C7.00926 11.3827 6.27829 11.9919 6.12453 12.8306L5.73761 14.9412C5.53866 16.0262 6.37194 17.0261 7.47508 17.0261H35.2251C36.2639 17.0261 37.0631 16.1392 36.9867 15.1297H14.0698Z" fill="#FFBE62"/>
<path d="M16.8648 34.7248L12.5016 29.7379C11.437 28.5211 9.89901 27.8232 8.28226 27.8232C7.63887 27.8232 7.00859 27.9355 6.41501 28.1452L6.72514 47.2217H15.8512C16.4232 46.5401 16.8158 45.6999 16.9457 44.7705L17.713 39.2829L18.143 38.5202C18.6115 37.6887 18.6034 36.6603 18.1219 35.8363C17.8288 35.3348 17.3833 34.95 16.8648 34.7248Z" fill="#EBA440"/>
<path d="M15.794 36.4273L11.0513 31.0067C9.58542 29.3313 6.97902 29.3313 5.51314 31.0067L0.770398 36.4273L0.510461 36.8722C0.328756 37.1833 0.553045 37.5742 0.913373 37.5742H15.944C16.1745 37.5742 16.3181 37.324 16.2018 37.1249L15.794 36.4273Z" fill="#BA491A"/>
<path d="M16.2017 37.1249L15.794 36.4272L14.5296 34.9821H6.48998C5.96933 34.9821 5.69099 34.3688 6.03388 33.977L8.18833 31.5146C8.75282 30.8694 9.48812 30.4738 10.2606 30.3256C8.77257 29.3759 6.74172 29.6025 5.51304 31.0067L0.770398 36.4272L0.510461 36.8722C0.328756 37.1833 0.553045 37.5741 0.913373 37.5741H3.1239C3.12977 37.5088 3.14914 37.4428 3.18575 37.3801L3.44569 36.9352L3.55533 36.8098V37.5741H15.944C16.1744 37.5741 16.318 37.3239 16.2017 37.1249Z" fill="#D76A39"/>
<path d="M1.52717 44.632L0.709202 38.6901L0.100209 37.5924C-0.188824 37.0715 0.181716 36.4273 0.770284 36.4273H15.794C16.3826 36.4273 16.7531 37.0716 16.4641 37.5924L15.8551 38.6901L15.0372 44.632C14.8327 46.1169 13.5825 47.2217 12.1066 47.2217H4.45767C2.98177 47.2217 1.73151 46.1169 1.52717 44.632Z" fill="#FEC263"/>
<path d="M7.35879 45.6571C5.88289 45.6571 4.63263 44.5522 4.42828 43.0674L3.61032 37.1254L3.22301 36.4273H0.770375C0.181808 36.4273 -0.188732 37.0716 0.100301 37.5925L0.709293 38.6901L1.52726 44.6321C1.7317 46.1169 2.98186 47.2218 4.45776 47.2218H12.1068C13.216 47.2218 14.1977 46.5976 14.7039 45.6572H7.35879V45.6571Z" fill="#FFB53C"/>
<path d="M24.5446 28.4111C24.468 28.4111 24.3902 28.3989 24.3137 28.373C23.9355 28.2455 23.7323 27.8356 23.8599 27.4574L24.6998 24.9668L25.3126 22.9883C25.4307 22.6072 25.8356 22.3934 26.2166 22.5119C26.5979 22.63 26.8112 23.0347 26.6931 23.4159L26.0775 25.4031C26.0757 25.4089 26.074 25.4145 26.0719 25.4202L25.2291 27.9192C25.1275 28.2209 24.8462 28.4111 24.5446 28.4111Z" fill="#97DA7B"/>
<path d="M25.3873 25.1894C26.4145 25.4557 27.0473 26.4865 26.8201 27.5229L26.4048 29.4174C25.5498 33.3168 20.4494 34.4116 18.1385 31.1564C18.1051 31.1095 18.0722 31.062 18.0395 31.0141C17.7866 30.6426 18.0495 30.1392 18.499 30.1392H19.1431C20.7887 30.1392 22.2398 29.0608 22.7144 27.4851L23.0019 26.5308C23.3076 25.5155 24.3609 24.9233 25.3873 25.1894Z" fill="#FF5757"/>
<path d="M20.2492 6.34181C19.85 6.34181 19.5266 6.01838 19.5266 5.61922V5.13432C19.5266 4.73517 19.85 4.41174 20.2492 4.41174C20.6483 4.41174 20.9717 4.73517 20.9717 5.13432V5.61922C20.9717 6.01828 20.6483 6.34181 20.2492 6.34181Z" fill="#FF5757"/>
<path d="M22.7063 8.66951C22.3071 8.66951 21.9837 8.34608 21.9837 7.94693V7.65587C21.9837 7.25672 22.3071 6.93329 22.7063 6.93329C23.1054 6.93329 23.4288 7.25672 23.4288 7.65587V7.94693C23.4288 8.34598 23.1054 8.66951 22.7063 8.66951Z" fill="#FF5757"/>
<path d="M25.3873 7.11762C24.9882 7.11762 24.6647 6.79419 24.6647 6.39503V6.08037C24.6647 5.68122 24.9882 5.35779 25.3873 5.35779C25.7865 5.35779 26.1099 5.68122 26.1099 6.08037V6.39503C26.1099 6.79419 25.7865 7.11762 25.3873 7.11762Z" fill="#FF5757"/>
</g>
<defs>
<clipPath id="clip0">
<rect width="48" height="48" fill="white"/>
</clipPath>
</defs>
</svg>
