<svg width="432" height="453" viewBox="0 0 432 453" fill="none" xmlns="http://www.w3.org/2000/svg">
<path d="M405.281 444.841L383.787 410.73L405.291 448.557L405.302 452.443C406.836 452.425 408.354 452.367 409.856 452.267L408.103 402.338L408.126 401.952L408.087 401.878L407.92 397.16L430.394 359.775L407.897 393.627L407.829 394.626L406.505 356.903L425.826 318.223L406.354 350.274L405.448 272.083L405.444 271.823L405.441 272.079L405 333.727L386.538 309.061L405.016 339.037L405.102 372.802L387.972 340.192L405.111 377.766L405.159 396.541L380.276 351.136L405.178 403.091L405.281 444.841Z" fill="#E2E2E2"/>
<path d="M410.768 68.2515C412.465 68.2496 414.104 68.8445 415.386 69.9266C416.398 69.6574 417.46 69.612 418.492 69.7937C419.347 68.5856 420.577 67.6754 422.001 67.196C423.425 66.7166 424.969 66.6932 426.408 67.1292C427.847 67.5652 429.104 68.4377 429.998 69.6193C430.891 70.8009 431.373 72.2297 431.372 73.6969H403.859C404.196 72.1561 405.066 70.7748 406.324 69.7837C407.582 68.7926 409.151 68.2517 410.768 68.2515Z" fill="#40414E"/>
<path d="M14.2304 89.5021C17.7238 89.4981 21.1009 90.7564 23.7399 93.0454C25.825 92.4759 28.011 92.3798 30.1379 92.7642C31.8988 90.2089 34.4307 88.2835 37.3636 87.2695C40.2966 86.2556 43.477 86.2061 46.4401 87.1282C49.4032 88.0504 51.9938 89.896 53.8333 92.3953C55.6729 94.8946 56.665 97.9167 56.6647 101.02H0C0.694811 97.7611 2.48698 94.8393 5.07707 92.7429C7.66715 90.6466 10.8982 89.5026 14.2304 89.5021Z" fill="#40414E"/>
<path d="M257.515 124.017C261.149 124.012 264.663 125.322 267.409 127.703C269.578 127.111 271.853 127.011 274.066 127.411C275.898 124.752 278.532 122.749 281.584 121.694C284.636 120.639 287.945 120.587 291.028 121.547C294.111 122.506 296.806 124.426 298.72 127.027C300.634 129.627 301.666 132.772 301.666 136H242.708C243.431 132.61 245.296 129.57 247.991 127.389C250.686 125.207 254.048 124.017 257.515 124.017Z" fill="#40414E"/>
<path d="M173.181 240.926V363.661H220.911V239.221L209.831 239.617V214.503H201.794L200.47 158.883C203.713 156.77 205.995 151.751 205.995 145.891C205.999 144.208 205.803 142.531 205.412 140.895C206.947 139.234 207.887 137.111 208.087 134.859C208.286 132.606 207.732 130.352 206.513 128.447C207.532 129.338 208.719 130.018 210.004 130.447C211.288 130.876 212.645 131.045 213.996 130.945C215.347 130.846 216.664 130.478 217.872 129.865C219.079 129.252 220.153 128.405 221.031 127.374C221.908 126.342 222.572 125.147 222.984 123.857C223.396 122.566 223.547 121.207 223.43 119.858C223.312 118.509 222.928 117.197 222.299 115.997C221.67 114.798 220.809 113.735 219.766 112.871C221.519 112.224 223.062 111.109 224.227 109.646C225.391 108.184 226.132 106.431 226.37 104.576C226.608 102.722 226.333 100.839 225.576 99.1296C224.818 97.4207 223.607 95.9521 222.073 94.8833C220.539 93.8144 218.742 93.1862 216.877 93.067C215.011 92.9477 213.149 93.342 211.492 94.2068C209.835 95.0717 208.446 96.3741 207.477 97.9727C206.508 99.5712 205.996 101.405 205.995 103.274C205.995 103.424 206 103.572 206.006 103.72C204.602 103.291 203.122 103.17 201.666 103.363C200.211 103.557 198.814 104.062 197.571 104.843C196.327 105.625 195.267 106.664 194.461 107.892C193.655 109.119 193.123 110.506 192.9 111.957C191.625 111.198 190.199 110.726 188.723 110.574C187.247 110.421 185.755 110.591 184.351 111.073C182.947 111.555 181.665 112.336 180.593 113.363C179.522 114.39 178.687 115.638 178.146 117.02C177.605 118.402 177.371 119.885 177.461 121.367C177.551 122.848 177.962 124.292 178.666 125.599C179.37 126.906 180.35 128.043 181.538 128.933C182.726 129.823 184.093 130.444 185.545 130.752C185.543 130.826 185.539 130.9 185.539 130.975C186.489 133.842 187.698 136.616 189.152 139.263C188.441 141.4 188.085 143.639 188.097 145.891C188.097 151.751 190.379 156.77 193.621 158.883L192.297 214.503H184.261V240.53L173.181 240.926ZM202.986 123.729L203.012 123.73C203.16 123.73 203.306 123.725 203.452 123.719C203.544 124.021 203.65 124.317 203.768 124.607C203.524 124.3 203.263 124.007 202.986 123.729Z" fill="#FFFBF6"/>
<path d="M146.9 451.025H291.796V283.4H146.9L146.9 451.025Z" fill="#3F3D56"/>
<path d="M199.816 451.025H238.881V416.932H199.816V451.025Z" fill="#E2E2E2"/>
<path d="M98.6106 62.8436C98.6078 62.9674 98.6012 63.0902 98.6012 63.2145C98.5989 65.4942 99.0552 67.751 99.9432 69.8506C100.831 71.9502 102.132 73.8497 103.77 75.4359C104.025 75.9813 104.31 76.5128 104.622 77.0281C103.437 80.5896 102.843 84.3209 102.863 88.0742C102.863 101.019 109.541 111.513 117.779 111.513C126.017 111.513 132.694 101.019 132.694 88.0742C132.701 85.2701 132.374 82.4752 131.722 79.7479C134.28 76.9801 135.848 73.4421 136.18 69.6881C136.512 65.934 135.589 62.1759 133.557 59.0022C135.256 60.4873 137.234 61.62 139.375 62.3347C141.516 63.0493 143.778 63.3315 146.029 63.165C148.28 62.9985 150.475 62.3865 152.488 61.3647C154.5 60.3428 156.29 58.9314 157.753 57.2123C159.215 55.4932 160.322 53.5008 161.008 51.3506C161.695 49.2003 161.947 46.9352 161.751 44.6866C161.555 42.438 160.914 40.2508 159.866 38.2518C158.818 36.2529 157.383 34.482 155.645 33.042C158.568 31.9634 161.139 30.1045 163.08 27.6672C165.02 25.2299 166.256 22.3074 166.652 19.2172C167.049 16.127 166.591 12.9873 165.328 10.1391C164.065 7.29093 162.046 4.84318 159.491 3.06178C156.935 1.28039 153.939 0.233464 150.83 0.0347267C147.721 -0.164011 144.617 0.493043 141.855 1.93452C139.093 3.37599 136.779 5.54675 135.164 8.211C133.549 10.8753 132.695 13.9311 132.694 17.0466C132.694 17.2962 132.703 17.5438 132.713 17.7907C130.373 17.0758 127.906 16.8728 125.48 17.1957C123.054 17.5186 120.726 18.3597 118.653 19.662C116.581 20.9642 114.814 22.6971 113.471 24.743C112.128 26.7889 111.24 29.0998 110.869 31.5189C108.744 30.254 106.368 29.467 103.907 29.2124C101.447 28.9578 98.9603 29.2418 96.6205 30.0446C94.2808 30.8474 92.1437 32.1498 90.3577 33.8614C88.5718 35.573 87.1798 37.6528 86.2783 39.9563C85.3768 42.2599 84.9874 44.7321 85.1372 47.2012C85.2871 49.6704 85.9725 52.0773 87.1459 54.255C88.3193 56.4327 89.9525 58.3289 91.9323 59.812C93.912 61.2951 96.1909 62.3296 98.6106 62.8436ZM127.722 51.1398C127.968 51.1398 128.213 51.1316 128.456 51.1213C128.609 51.6251 128.784 52.1184 128.982 52.6011C128.576 52.0891 128.141 51.6008 127.678 51.1387L127.722 51.1398Z" fill="#FFFBF6"/>
<path d="M109.253 227.999H126.302L125.693 202.431V202.421L123.462 108.669C121.75 109.714 119.783 110.268 117.777 110.268C115.771 110.268 113.805 109.714 112.093 108.669L109.862 202.421V202.431L109.253 227.999Z" fill="#FFB944"/>
<path d="M78.0054 246.462V451.025H157.55V243.622L139.085 244.281V202.431H96.4689V245.804L78.0054 246.462Z" fill="#FFB944"/>
<path d="M301.749 62.8436C301.746 62.9674 301.74 63.0902 301.74 63.2145C301.738 65.4942 302.194 67.751 303.082 69.8506C303.97 71.9502 305.271 73.8497 306.908 75.4359C307.164 75.9813 307.449 76.5128 307.761 77.0281C306.576 80.5896 305.982 84.3209 306.002 88.0742C306.002 101.019 312.679 111.513 320.917 111.513C329.155 111.513 335.833 101.019 335.833 88.0742C335.839 85.2701 335.513 82.4752 334.861 79.7479C337.419 76.9801 338.986 73.4421 339.318 69.6881C339.65 65.934 338.728 62.1759 336.695 59.0022C338.395 60.4873 340.373 61.6201 342.514 62.3347C344.655 63.0494 346.916 63.3317 349.167 63.1652C351.418 62.9987 353.614 62.3867 355.627 61.3648C357.639 60.343 359.429 58.9315 360.891 57.2125C362.354 55.4934 363.461 53.5009 364.147 51.3507C364.834 49.2004 365.086 46.9353 364.89 44.6867C364.694 42.438 364.053 40.2508 363.005 38.2518C361.957 36.2528 360.522 34.482 358.784 33.042C361.706 31.9634 364.278 30.1045 366.218 27.6672C368.159 25.2299 369.395 22.3074 369.791 19.2172C370.187 16.127 369.729 12.9873 368.467 10.1391C367.204 7.29093 365.185 4.84318 362.629 3.06178C360.073 1.28039 357.078 0.233465 353.969 0.0347268C350.86 -0.164011 347.755 0.493043 344.994 1.93452C342.232 3.37599 339.917 5.54675 338.302 8.211C336.687 10.8753 335.833 13.9311 335.833 17.0466C335.833 17.2962 335.841 17.5438 335.852 17.7907C333.511 17.0758 331.044 16.8728 328.618 17.1957C326.192 17.5186 323.864 18.3597 321.792 19.662C319.72 20.9642 317.952 22.6971 316.609 24.743C315.266 26.7889 314.379 29.0998 314.008 31.5189C311.882 30.254 309.507 29.467 307.046 29.2124C304.585 28.9578 302.099 29.2418 299.759 30.0446C297.419 30.8474 295.282 32.1498 293.496 33.8614C291.71 35.573 290.318 37.6528 289.417 39.9563C288.515 42.2599 288.126 44.7321 288.276 47.2012C288.426 49.6704 289.111 52.0773 290.285 54.255C291.458 56.4327 293.091 58.3289 295.071 59.812C297.051 61.2951 299.33 62.3296 301.749 62.8436ZM330.861 51.1398C331.107 51.1398 331.351 51.1316 331.595 51.1213C331.748 51.6251 331.923 52.1184 332.121 52.6011C331.715 52.0891 331.279 51.6008 330.817 51.1387L330.861 51.1398Z" fill="#FFFBF6"/>
<path d="M312.395 227.999H329.441L326.6 108.672C322.927 109.992 318.909 109.992 315.236 108.672L312.395 227.999Z" fill="#FFB944"/>
<path d="M281.144 246.462V451.025H360.697V243.622L354.163 243.858L342.224 244.281V202.431H299.607V245.804L281.144 246.462Z" fill="#FFB944"/>
<path d="M240.966 323.284H260.618V303.631H240.966V323.284Z" fill="white"/>
<path d="M209.522 323.284H229.174V303.631H209.522V323.284Z" fill="white"/>
<path d="M178.078 323.284H197.73V303.631H178.078V323.284Z" fill="white"/>
<path d="M240.966 354.728H260.618V335.075H240.966V354.728Z" fill="white"/>
<path d="M209.522 354.728H229.174V335.075H209.522V354.728Z" fill="white"/>
<path d="M178.078 354.728H197.73V335.075H178.078V354.728Z" fill="white"/>
<path d="M240.966 386.172H260.618V366.519H240.966V386.172Z" fill="white"/>
<path d="M209.522 386.172H229.174V366.519H209.522V386.172Z" fill="white"/>
<path d="M178.078 386.172H197.73V366.519H178.078V386.172Z" fill="white"/>
<path d="M107.952 315.423H127.605V295.77H107.952V315.423Z" fill="white"/>
<path d="M107.952 346.867H127.605V327.214H107.952V346.867Z" fill="white"/>
<path d="M107.952 378.311H127.605V358.658H107.952V378.311Z" fill="white"/>
<path d="M107.952 409.755H127.605V390.102H107.952V409.755Z" fill="white"/>
<path d="M310.928 315.423H330.58V295.77H310.928V315.423Z" fill="white"/>
<path d="M310.928 346.867H330.58V327.214H310.928V346.867Z" fill="white"/>
<path d="M310.928 378.311H330.58V358.658H310.928V378.311Z" fill="white"/>
<path d="M310.928 409.755H330.58V390.102H310.928V409.755Z" fill="white"/>
<path d="M431.372 451.025H26.5308V452.008H431.372V451.025Z" fill="#3F3D56"/>
</svg>
