<svg width="48" height="48" viewBox="0 0 48 48" fill="none" xmlns="http://www.w3.org/2000/svg">
<g clip-path="url(#clip0)">
<path d="M28.1379 24L44.6897 21.5173L45.9062 22.0304L45.7241 22.9242C44.6567 28.3554 39.8966 32.273 34.3614 32.2759H33.1035L28.1379 24Z" fill="#805333"/>
<path d="M14.8965 13.2414V17.5614L32.8386 27.2276C38.4745 26.9462 43.2993 24.9186 45.9062 22.0304C47.2049 20.6982 47.9527 18.9247 48 17.0648V13.2414H14.8965Z" fill="#A56A43"/>
<path d="M16.0386 16.9324C15.2952 15.845 14.8972 14.5586 14.8965 13.2414C14.8965 8.58207 20.2593 4.67586 27.451 3.60828L41.0565 5.16414C45.7572 7.19172 49.44 11.1807 47.4786 15.7738C45.6414 20.0855 39.2028 23.2634 31.4483 23.2634C30.4055 23.2634 30.1159 23.2221 30.0248 23.2221L16.0386 16.9324Z" fill="#CB8252"/>
<path d="M44.2759 14.8966C42.8028 17.7518 37.6552 19.8621 31.4483 19.8621C29.2856 19.8761 27.1309 19.5977 25.0428 19.0345L19.2497 15.8069C18.8619 15.3683 18.5663 14.856 18.3807 14.3007C20.6814 12.8607 24.2483 10.1628 24.8359 7.51451C25.6552 3.82347 32.16 -0.405494 35.5862 2.33259e-05C39.5917 0.521403 41.6938 6.50485 43.7876 10.8083C43.9117 11.0649 44.5159 12.2897 44.6152 12.3476C44.8338 13.2093 44.7123 14.1221 44.2759 14.8966Z" fill="#C03A2B"/>
<path d="M24.8276 7.51453C24.2317 10.1628 20.6897 12.869 18.3724 14.3007C17.3214 10.8994 21.3517 8.50763 24.8276 7.51453Z" fill="#805333"/>
<path d="M30.6207 7.44826C31.0778 7.44826 31.4483 7.07774 31.4483 6.62068C31.4483 6.16361 31.0778 5.79309 30.6207 5.79309C30.1636 5.79309 29.7931 6.16361 29.7931 6.62068C29.7931 7.07774 30.1636 7.44826 30.6207 7.44826Z" fill="#E64C3C"/>
<path d="M35.5862 9.93105C36.0433 9.93105 36.4138 9.56053 36.4138 9.10346C36.4138 8.6464 36.0433 8.27588 35.5862 8.27588C35.1292 8.27588 34.7586 8.6464 34.7586 9.10346C34.7586 9.56053 35.1292 9.93105 35.5862 9.93105Z" fill="#E64C3C"/>
<path d="M34.7586 14.8966C35.2157 14.8966 35.5862 14.526 35.5862 14.069C35.5862 13.6119 35.2157 13.2414 34.7586 13.2414C34.3016 13.2414 33.931 13.6119 33.931 14.069C33.931 14.526 34.3016 14.8966 34.7586 14.8966Z" fill="#E64C3C"/>
<path d="M28.9655 12.4138C29.4226 12.4138 29.7931 12.0433 29.7931 11.5862C29.7931 11.1291 29.4226 10.7586 28.9655 10.7586C28.5085 10.7586 28.1379 11.1291 28.1379 11.5862C28.1379 12.0433 28.5085 12.4138 28.9655 12.4138Z" fill="#E64C3C"/>
<path d="M35.5862 5.79311C36.0433 5.79311 36.4138 5.42259 36.4138 4.96552C36.4138 4.50846 36.0433 4.13794 35.5862 4.13794C35.1292 4.13794 34.7586 4.50846 34.7586 4.96552C34.7586 5.42259 35.1292 5.79311 35.5862 5.79311Z" fill="#E64C3C"/>
<path d="M31.0096 37.7545L30.8276 38.6483C29.7601 44.0796 25 47.9972 19.4648 48.0001H13.6717C8.1241 48.0131 3.34573 44.0918 2.27585 38.6483L2.09378 37.7545H31.0096Z" fill="#805333"/>
<path d="M0 28.9656V32.789C0 38.4249 7.44828 43.0345 16.5517 43.0345C25.6552 43.0345 33.1034 38.4663 33.1034 32.8304V28.9656H0Z" fill="#CB8252"/>
<path d="M12.5545 19.3325C5.36276 20.4 0 24.3063 0 28.9656C0 34.4773 7.44828 38.9463 16.5517 38.9463C24.2648 38.9463 30.7448 35.7683 32.5821 31.498C34.5352 26.9214 30.9269 22.9242 26.16 20.8883L12.5545 19.3325Z" fill="#CF976A"/>
<path d="M29.3793 30.6207C27.9062 33.4759 22.7586 35.5862 16.5517 35.5862C10.3448 35.5862 5.19724 33.4759 3.72414 30.6207C3.62738 30.4282 3.54441 30.2291 3.47586 30.0248C5.77655 28.5848 9.34345 25.8869 9.93103 23.2386C10.7586 19.5476 17.2634 15.3186 20.6896 15.7903C24.6952 16.3117 26.7972 22.2952 28.891 26.5986C29.0152 26.8552 29.6193 28.08 29.7186 28.1379C29.9198 28.9788 29.7987 29.8646 29.3793 30.6207Z" fill="#F0C419"/>
<path d="M9.93103 23.2386C9.33517 25.8869 5.7931 28.5931 3.47586 30.0249C2.42482 26.6235 6.45517 24.2318 9.93103 23.2386Z" fill="#805333"/>
<path d="M15.7241 24C16.1812 24 16.5517 23.6295 16.5517 23.1724C16.5517 22.7154 16.1812 22.3448 15.7241 22.3448C15.2671 22.3448 14.8965 22.7154 14.8965 23.1724C14.8965 23.6295 15.2671 24 15.7241 24Z" fill="#F29C1F"/>
<path d="M22.3448 28.138C22.8019 28.138 23.1724 27.7674 23.1724 27.3104C23.1724 26.8533 22.8019 26.4828 22.3448 26.4828C21.8878 26.4828 21.5172 26.8533 21.5172 27.3104C21.5172 27.7674 21.8878 28.138 22.3448 28.138Z" fill="#F29C1F"/>
<path d="M17.3793 32.2759C17.8364 32.2759 18.2069 31.9054 18.2069 31.4483C18.2069 30.9912 17.8364 30.6207 17.3793 30.6207C16.9223 30.6207 16.5517 30.9912 16.5517 31.4483C16.5517 31.9054 16.9223 32.2759 17.3793 32.2759Z" fill="#F29C1F"/>
<path d="M10.7586 31.4483C11.2157 31.4483 11.5862 31.0778 11.5862 30.6207C11.5862 30.1637 11.2157 29.7932 10.7586 29.7932C10.3016 29.7932 9.93103 30.1637 9.93103 30.6207C9.93103 31.0778 10.3016 31.4483 10.7586 31.4483Z" fill="#F29C1F"/>
<path d="M20.6896 21.5173C21.1467 21.5173 21.5172 21.1468 21.5172 20.6897C21.5172 20.2326 21.1467 19.8621 20.6896 19.8621C20.2326 19.8621 19.8621 20.2326 19.8621 20.6897C19.8621 21.1468 20.2326 21.5173 20.6896 21.5173Z" fill="#F29C1F"/>
</g>
<defs>
<clipPath id="clip0">
<rect width="48" height="48" fill="white"/>
</clipPath>
</defs>
</svg>
