<svg width="96" height="96" viewBox="0 0 96 96" fill="none" xmlns="http://www.w3.org/2000/svg">
<circle cx="48" cy="48" r="48" fill="#FFDAD8"/>
<path d="M52.0383 63.3718V66.2685C52.0383 66.6898 52.3797 67.0313 52.8011 67.0313H65.4062C65.8275 67.0313 66.1689 66.6898 66.1689 66.2685V63.3718H52.0383Z" fill="#FFDB56"/>
<path d="M72.4454 45.4029C72.4241 44.9978 72.0894 44.6802 71.6837 44.6802H46.5066C46.1009 44.6802 45.7662 44.9978 45.7449 45.4029C45.7384 45.5262 45.5947 48.4657 46.3142 52.1761C47.2471 56.9867 49.2232 60.8483 52.0384 63.3718H66.1521C68.9672 60.8483 70.9434 56.9867 71.8762 52.1761C72.5957 48.4657 72.4519 45.5262 72.4454 45.4029Z" fill="#E0E0E0"/>
<path d="M72.4455 45.4029C72.4243 44.9978 72.0896 44.6802 71.6839 44.6802H68.2661C68.6718 44.6802 69.0065 44.9978 69.0277 45.4029C69.0342 45.5262 69.178 48.4657 68.4585 52.1761C67.5256 56.9867 65.5495 60.8483 62.7344 63.3718H66.1522C68.9673 60.8483 70.9434 56.9867 71.8763 52.1761C72.5959 48.4657 72.452 45.5262 72.4455 45.4029Z" fill="#C4C4C4"/>
<path d="M52.0383 64.4443V66.2684C52.0383 66.6897 52.3797 67.0312 52.8011 67.0312H65.4062C65.8275 67.0312 66.1689 66.6897 66.1689 66.2684V64.4443H52.0383Z" fill="#FFC41F"/>
<path d="M62.667 50.3166C62.0387 49.6271 61.1435 49.2316 60.2106 49.2316H59.9675V40.1839C59.9675 39.7625 59.6261 39.4211 59.2048 39.4211C58.7834 39.4211 58.442 39.7625 58.442 40.1839V49.2316H58.2407C57.3078 49.2316 56.4124 49.6271 55.7843 50.3166C55.156 51.0062 54.8454 51.9344 54.932 52.8633L55.3187 57.0083C55.5069 59.0244 57.1665 60.5473 59.1867 60.5667C59.1928 60.5668 59.1987 60.5676 59.2048 60.5676C59.207 60.5676 59.2091 60.5673 59.2114 60.5673C59.2162 60.5673 59.2208 60.5676 59.2256 60.5676C61.2635 60.5676 62.9431 59.0374 63.1325 57.0082L63.5193 52.8633C63.6058 51.9344 63.2951 51.0061 62.667 50.3166ZM56.8376 56.8665L56.4509 52.7216C56.4033 52.2117 56.5671 51.7225 56.9119 51.344C57.2567 50.9654 57.7285 50.7571 58.2406 50.7571H58.4419V58.9101C57.5726 58.6124 56.9278 57.8333 56.8376 56.8665ZM62.0003 52.7217L61.6135 56.8665C61.5219 57.8489 60.858 58.6376 59.9674 58.9243V50.7571H60.2105C60.7225 50.7571 61.1944 50.9655 61.5392 51.344C61.884 51.7225 62.0479 52.2118 62.0003 52.7217Z" fill="#67676B"/>
<path d="M66.0951 35.9094H52.5428C52.1214 35.9094 51.78 36.2508 51.78 36.6722V38.7118C51.78 39.9442 52.7827 40.947 54.0153 40.947H64.6227C65.8552 40.947 66.8579 39.9444 66.8579 38.7118V36.6722C66.8579 36.2509 66.5164 35.9094 66.0951 35.9094Z" fill="#FFDB56"/>
<path d="M66.0951 35.9094H52.5428C52.1214 35.9094 51.78 36.2508 51.78 36.6722V38.7633H66.8579V36.6722C66.8579 36.2509 66.5164 35.9094 66.0951 35.9094Z" fill="#FFC41F"/>
<path d="M67.6896 65.5056H45.5513L42.3858 44.9451C42.0961 43.0629 42.641 41.1545 43.8809 39.7091C45.1207 38.2637 46.9241 37.4348 48.8284 37.4348H69.4218C71.4203 37.4348 73.0463 35.8089 73.0463 33.8103C73.0463 28.4009 68.6454 24 63.2359 24H35.2351C29.8256 24 25.4247 28.4008 25.4247 33.8103C25.4247 34.8026 25.8387 35.7622 26.5608 36.4445L30.3357 40.1164C31.2711 41.0263 31.7109 42.3394 31.512 43.6293L28.1394 65.5079C24.7386 65.5988 22 68.3936 22 71.8161C22 72.2374 22.3415 72.5788 22.7627 72.5788H73.2373C73.6586 72.5788 74 72.2374 74 71.8161C74 68.3365 71.1692 65.5056 67.6896 65.5056Z" fill="#E93234"/>
<path d="M36.8368 30.3599C35.1412 30.3599 33.7617 31.7393 33.7617 33.4349C33.7617 35.1306 35.1412 36.51 36.8368 36.51C38.5324 36.51 39.9119 35.1306 39.9119 33.4349C39.9119 31.7393 38.5324 30.3599 36.8368 30.3599Z" fill="#FFDB56"/>
<path d="M36.8367 33.9335C35.6009 33.9335 34.5338 33.2004 34.0454 32.1467C33.8637 32.5389 33.7615 32.9752 33.7615 33.4351C33.7615 35.1307 35.1409 36.5101 36.8366 36.5101C38.5322 36.5101 39.9116 35.1307 39.9116 33.4351C39.9116 32.9752 39.8094 32.5389 39.6277 32.1467C39.1395 33.2004 38.0724 33.9335 36.8367 33.9335Z" fill="#FFC41F"/>
<path d="M49.8397 32.6441H47.4749C47.0537 32.6441 46.7122 32.3027 46.7122 31.8814C46.7122 31.4601 47.0537 31.1187 47.4749 31.1187H49.8397C50.2611 31.1187 50.6025 31.4601 50.6025 31.8814C50.6025 32.3026 50.2609 32.6441 49.8397 32.6441Z" fill="#E0E0E0"/>
<path d="M65.1762 32.6441H53.6534C53.232 32.6441 52.8906 32.3027 52.8906 31.8814C52.8906 31.4601 53.232 31.1187 53.6534 31.1187H65.1763C65.5976 31.1187 65.9391 31.4601 65.9391 31.8814C65.9389 32.3026 65.5975 32.6441 65.1762 32.6441Z" fill="#E0E0E0"/>
<path d="M73.3111 68.9546C73.2868 68.9569 73.2622 68.9584 73.2373 68.9584H22.7627C22.7377 68.9584 22.7131 68.9569 22.6887 68.9546C22.2494 69.8142 22 70.7863 22 71.816C22 72.2373 22.3415 72.5787 22.7627 72.5787H73.2373C73.6586 72.5787 74 72.2373 74 71.816C74 70.7862 73.7504 69.8142 73.3111 68.9546Z" fill="#D6252E"/>
<path d="M72.6267 30.9702C72.1311 32.7684 70.5536 33.8251 69.4219 33.8251H54.1034H48.4428C46.9419 33.8251 45.5707 34.2073 44.3919 34.8636C41.6053 36.6105 40.2502 40.2684 41.7694 43.5948L42.386 44.9449C42.0962 43.0628 42.6411 41.1544 43.881 39.7089C45.1209 38.2636 46.9242 37.4346 48.8285 37.4346H50.2999H69.4219C71.4204 37.4346 73.0464 35.8088 73.0464 33.8102C73.0464 32.823 72.8992 31.8696 72.6267 30.9702Z" fill="#D6252E"/>
</svg>
