<svg width="96" height="96" viewBox="0 0 96 96" fill="none" xmlns="http://www.w3.org/2000/svg">
<circle cx="48" cy="48" r="48" fill="#FFE3D0"/>
<g clip-path="url(#clip0)">
<path d="M56.2869 47.9999L53.4069 55.0179C53.3143 55.25 53.1422 55.4416 52.9214 55.5586L45.7711 59.531C45.4962 59.684 45.1691 59.7125 44.872 59.6092C44.5748 59.506 44.3359 59.2808 44.2152 58.9903L39.7131 47.9999L48 46.8965L56.2869 47.9999Z" fill="#FEC263"/>
<path d="M68.3365 18.6263L58.5489 42.4828L47.9999 43.5863L37.4509 42.4828L27.6634 18.6263C27.5239 18.2868 27.5623 17.9002 27.7659 17.5949C27.9695 17.2895 28.3115 17.1053 28.6785 17.1035H36.9875C36.9857 17.0664 36.9894 17.0292 36.9985 16.9932C37.047 16.4274 37.5231 15.9945 38.0909 16.0001H57.9089C58.4716 15.9972 58.9444 16.4223 59.0013 16.9821C59.0104 17.0219 59.0141 17.0627 59.0123 17.1035H67.3213C67.6883 17.1053 68.0303 17.2895 68.2339 17.5949C68.4375 17.9002 68.4759 18.2868 68.3365 18.6263Z" fill="#FEC263"/>
<path d="M56.6731 63.4482H39.3269C39.0095 63.4487 38.7077 63.5858 38.4986 63.8245C38.2894 64.0633 38.1932 64.3805 38.2345 64.6951L38.6538 67.862L39.6358 75.211C40.0011 77.954 42.3418 80.002 45.109 80H50.891C53.6582 80.002 55.9989 77.954 56.3641 75.211L57.3462 67.862L57.7655 64.6951C57.8068 64.3805 57.7105 64.0633 57.5014 63.8245C57.2923 63.5858 56.9905 63.4487 56.6731 63.4482Z" fill="#FFB53C"/>
<path d="M37.2633 48L29.164 78.3669C28.9047 79.3299 28.0317 79.9994 27.0344 80C26.8405 80.0008 26.6474 79.9748 26.4606 79.9228C25.8968 79.7727 25.4159 79.4045 25.124 78.8994C24.8321 78.3943 24.7532 77.7937 24.9047 77.2303L32.6951 48H37.2633Z" fill="#FF9393"/>
<path d="M69.5391 79.9228C69.3523 79.9748 69.1592 80.0008 68.9653 80C67.9679 79.9994 67.0949 79.3299 66.8356 78.3669L58.7363 48H63.3046L71.0949 77.2303C71.2465 77.7937 71.1676 78.3943 70.8757 78.8994C70.5838 79.4045 70.1029 79.7727 69.5391 79.9228Z" fill="#FF9393"/>
<path d="M63.3047 48H32.6951L33.7323 44.1269C33.9802 43.1594 34.8521 42.4828 35.8509 42.4828H60.1489C61.1476 42.4828 62.0195 43.1594 62.2675 44.1269L63.3047 48Z" fill="#DB7C42"/>
<path d="M57.7655 64.6951L57.3462 67.862H38.6538L38.2345 64.6951C38.1932 64.3805 38.2894 64.0633 38.4986 63.8245C38.7077 63.5858 39.0095 63.4487 39.3269 63.4482H56.6731C56.9905 63.4487 57.2923 63.5858 57.5014 63.8245C57.7105 64.0633 57.8068 64.3805 57.7655 64.6951Z" fill="#E9784A"/>
<path d="M61.1973 17.1036C61.1968 17.336 61.1595 17.5669 61.087 17.7877L56.3201 31.8015C56.1683 32.2509 55.7462 32.5531 55.2718 32.5518C55.1521 32.5497 55.0333 32.5311 54.9187 32.4967C54.3451 32.2956 54.0366 31.6736 54.2235 31.0953L58.9904 17.0815C58.9886 17.048 58.9923 17.0145 59.0014 16.9822C59.0106 17.022 59.0143 17.0628 59.0125 17.1036H61.1973Z" fill="#DB992C"/>
<path d="M41.7765 31.0952L37.0207 17.1035L37.0096 17.0704C37.0114 17.0442 37.0076 17.0179 36.9986 16.9932C36.9895 17.0292 36.9858 17.0664 36.9876 17.1035H34.8027C34.8033 17.3359 34.8405 17.5668 34.9131 17.7876L39.68 31.8014C39.8318 32.2509 40.2539 32.553 40.7283 32.5518C40.8479 32.5496 40.9667 32.5311 41.0814 32.4966C41.655 32.2955 41.9635 31.6736 41.7765 31.0952Z" fill="#DB992C"/>
</g>
<defs>
<clipPath id="clip0">
<rect width="64" height="64" fill="white" transform="translate(16 16)"/>
</clipPath>
</defs>
</svg>
