<svg width="96" height="96" viewBox="0 0 96 96" fill="none" xmlns="http://www.w3.org/2000/svg">
<circle cx="47.9999" cy="48" r="48" fill="white"/>
<g clip-path="url(#clip0)">
<path d="M56.2868 47.9999L53.4068 55.0179C53.3142 55.25 53.1421 55.4416 52.9213 55.5586L45.7709 59.531C45.4961 59.684 45.169 59.7125 44.8719 59.6092C44.5747 59.506 44.3358 59.2808 44.2151 58.9903L39.713 47.9999L47.9999 46.8965L56.2868 47.9999Z" fill="#FEC263"/>
<path d="M68.3365 18.6263L58.5489 42.4828L47.9999 43.5863L37.4509 42.4828L27.6634 18.6263C27.5239 18.2868 27.5623 17.9002 27.7659 17.5949C27.9695 17.2895 28.3115 17.1053 28.6785 17.1035H36.9875C36.9857 17.0664 36.9894 17.0292 36.9985 16.9932C37.047 16.4274 37.5231 15.9945 38.0909 16.0001H57.9089C58.4716 15.9972 58.9444 16.4223 59.0013 16.9821C59.0104 17.0219 59.0141 17.0627 59.0123 17.1035H67.3213C67.6883 17.1053 68.0303 17.2895 68.2339 17.5949C68.4375 17.9002 68.4759 18.2868 68.3365 18.6263Z" fill="#FEC263"/>
<path d="M56.673 63.4482H39.3268C39.0094 63.4487 38.7076 63.5858 38.4985 63.8245C38.2893 64.0633 38.1931 64.3805 38.2343 64.6951L38.6537 67.862L39.6357 75.211C40.001 77.954 42.3417 80.002 45.1088 80H50.8909C53.6581 80.002 55.9987 77.954 56.364 75.211L57.3461 67.862L57.7654 64.6951C57.8066 64.3805 57.7104 64.0633 57.5013 63.8245C57.2921 63.5858 56.9903 63.4487 56.673 63.4482Z" fill="#FFB53C"/>
<path d="M37.2633 48L29.164 78.3669C28.9047 79.3299 28.0317 79.9994 27.0344 80C26.8405 80.0008 26.6474 79.9748 26.4606 79.9228C25.8968 79.7727 25.4159 79.4045 25.124 78.8994C24.8321 78.3943 24.7532 77.7937 24.9047 77.2303L32.6951 48H37.2633Z" fill="#FF9393"/>
<path d="M69.5392 79.9228C69.3524 79.9748 69.1593 80.0008 68.9654 80C67.9681 79.9994 67.0951 79.3299 66.8358 78.3669L58.7365 48H63.3047L71.0951 77.2303C71.2466 77.7937 71.1677 78.3943 70.8758 78.8994C70.5839 79.4045 70.103 79.7727 69.5392 79.9228Z" fill="#FF9393"/>
<path d="M63.3047 47.9999H32.6951L33.7323 44.1268C33.9802 43.1593 34.8521 42.4826 35.8509 42.4827H60.1489C61.1476 42.4826 62.0195 43.1593 62.2675 44.1268L63.3047 47.9999Z" fill="#DB7C42"/>
<path d="M57.7654 64.6951L57.3461 67.862H38.6537L38.2343 64.6951C38.1931 64.3805 38.2893 64.0633 38.4985 63.8245C38.7076 63.5858 39.0094 63.4487 39.3268 63.4482H56.673C56.9903 63.4487 57.2921 63.5858 57.5013 63.8245C57.7104 64.0633 57.8066 64.3805 57.7654 64.6951Z" fill="#E9784A"/>
<path d="M61.1971 17.1036C61.1965 17.336 61.1593 17.5669 61.0867 17.7877L56.3198 31.8015C56.168 32.2509 55.7459 32.5531 55.2715 32.5518C55.1519 32.5497 55.0331 32.5311 54.9184 32.4967C54.3448 32.2956 54.0363 31.6736 54.2233 31.0953L58.9902 17.0815C58.9884 17.048 58.9921 17.0145 59.0012 16.9822C59.0103 17.022 59.014 17.0628 59.0122 17.1036H61.1971Z" fill="#DB992C"/>
<path d="M41.7764 31.0952L37.0205 17.1035L37.0095 17.0704C37.0113 17.0442 37.0075 17.0179 36.9985 16.9932C36.9894 17.0292 36.9856 17.0664 36.9874 17.1035H34.8026C34.8031 17.3359 34.8404 17.5668 34.913 17.7876L39.6799 31.8014C39.8317 32.2509 40.2537 32.553 40.7281 32.5518C40.8478 32.5496 40.9666 32.5311 41.0812 32.4966C41.6548 32.2955 41.9633 31.6736 41.7764 31.0952Z" fill="#DB992C"/>
</g>
<defs>
<clipPath id="clip0">
<rect width="64" height="64" fill="white" transform="translate(15.9999 16)"/>
</clipPath>
</defs>
</svg>
