<svg width="48" height="48" viewBox="0 0 48 48" fill="none" xmlns="http://www.w3.org/2000/svg">
<path d="M41.8817 18.175H14.2723L10.611 9.77856H38.22L41.8817 18.175Z" fill="#FFD07D"/>
<path d="M38.22 9.77856H34.5586L38.22 18.175H41.8817L38.22 9.77856Z" fill="#FFBE62"/>
<path d="M10.611 9.77856L6.1875 18.175H14.2698L10.611 9.77856Z" fill="#FFBE62"/>
<path d="M39.6537 48H14.2698V18.1117H41.8817V45.772C41.8817 47.0024 40.8842 48 39.6537 48Z" fill="#FEC263"/>
<path d="M38.22 18.1117V45.7046C38.22 46.9724 37.1924 48 35.9246 48H39.5863C40.8541 48 41.8817 46.9724 41.8817 45.7046V18.1117H38.22Z" fill="#FFB53C"/>
<path d="M37.782 33.056C37.782 38.4166 33.4362 42.7621 28.0756 42.7621C22.715 42.7621 18.3695 38.4166 18.3695 33.056C18.3695 27.6954 22.715 23.3496 28.0756 23.3496C33.4362 23.3496 37.782 27.6954 37.782 33.056Z" fill="#FF5757"/>
<path d="M6.1875 30.3951V45.7046C6.1875 46.9724 7.21509 48 8.48291 48H14.2698V18.1117H6.1875V27.691" fill="#FFB53C"/>
<path d="M35.9323 0H12.8987C11.6353 0 10.611 1.02429 10.611 2.28809V9.77856H38.2203V2.28809C38.22 1.02429 37.1957 0 35.9323 0ZM32.0453 4.88928C32.0453 6.00952 31.1371 6.91736 30.0172 6.91736H18.8137C17.6938 6.91736 16.7856 6.00952 16.7856 4.88928C16.7856 3.76904 17.6938 2.86121 18.8137 2.86121H30.0172C31.1371 2.86121 32.0453 3.76904 32.0453 4.88928Z" fill="#FEC263"/>
<path d="M35.9323 0H32.2709C33.5343 0 34.5586 1.02429 34.5586 2.28809V9.77856H38.2203V2.28809C38.22 1.02429 37.1957 0 35.9323 0Z" fill="#FFB53C"/>
<path d="M25.5183 30.8829H30.6368C31.0371 30.8829 31.3612 30.5585 31.3612 30.1586C31.3612 29.7583 31.0371 29.4342 30.6368 29.4342H25.5183C25.118 29.4342 24.7939 29.7587 24.7939 30.1586C24.7939 30.5585 25.118 30.8829 25.5183 30.8829Z" fill="#F0EFEF"/>
<path d="M22.1378 32.3313C21.7379 32.3313 21.4135 32.6558 21.4135 33.0557C21.4135 33.4559 21.7379 33.78 22.1378 33.78H34.0173C34.4172 33.78 34.7413 33.4559 34.7413 33.0557C34.7413 32.6558 34.4172 32.3313 34.0173 32.3313H22.1378Z" fill="#F0EFEF"/>
<path d="M30.6368 35.2288H25.5183C25.118 35.2288 24.7939 35.5532 24.7939 35.9531C24.7939 36.3534 25.118 36.6775 25.5183 36.6775H30.6368C31.0371 36.6775 31.3612 36.3534 31.3612 35.9531C31.3612 35.5532 31.0371 35.2288 30.6368 35.2288Z" fill="#F0EFEF"/>
</svg>
