<svg width="96" height="96" viewBox="0 0 96 96" fill="none" xmlns="http://www.w3.org/2000/svg">
<circle cx="47.9995" cy="47.9996" r="48" fill="white"/>
<g clip-path="url(#clip0)">
<path d="M62.6814 44.7915C61.6145 44.7915 60.7495 43.9266 60.7495 42.8597V30.82C60.7495 30.3076 60.953 29.8162 61.3153 29.454L69.5176 21.2517C70.272 20.4972 71.4953 20.4972 72.2497 21.2517C73.0042 22.0061 73.0042 23.2292 72.2497 23.9837L64.6132 31.6203V42.8597C64.6132 43.9266 63.7482 44.7915 62.6814 44.7915Z" fill="#B2B0BC"/>
<path d="M64.1542 68.3649C70.2214 68.3649 75.1575 63.4288 75.1575 57.3616C75.1575 51.2942 70.2214 46.3582 64.1542 46.3582V42.4944C72.3518 42.4944 79.0212 49.1638 79.0212 57.3616C79.0212 65.5592 72.3518 72.2286 64.1542 72.2286V68.3649Z" fill="#4F4C5F"/>
<path d="M64.1542 46.3582C66.5985 46.3582 68.8586 47.1603 70.6871 48.514V44.4264C70.6871 44.2844 70.6831 44.1436 70.6758 44.0035C68.7057 43.0377 66.4923 42.4944 64.1542 42.4944V46.3582Z" fill="#423E4F"/>
<path d="M70.6871 70.2967V66.209C68.8586 67.5626 66.5987 68.3648 64.1542 68.3648V72.2286C66.4923 72.2286 68.7057 71.6853 70.6758 70.7195C70.6831 70.5795 70.6871 70.4386 70.6871 70.2967Z" fill="#423E4F"/>
<path d="M62.6813 40.2837C60.3934 40.2837 58.5387 42.1384 58.5387 44.4263V70.2967C58.5387 72.5846 60.3934 74.4393 62.6813 74.4393C64.9692 74.4393 66.8239 72.5846 66.8239 70.2967V44.4263C66.8239 42.1384 64.9692 40.2837 62.6813 40.2837Z" fill="#FB554A"/>
<path d="M62.402 70.2967V44.4263C62.402 42.8362 63.2984 41.456 64.613 40.7617C64.0361 40.457 63.3791 40.2838 62.6814 40.2838C60.3935 40.2838 58.5388 42.1385 58.5388 44.4263V70.2967C58.5388 72.5846 60.3935 74.4393 62.6814 74.4393C63.3791 74.4393 64.0361 74.266 64.613 73.9613C63.2984 73.267 62.402 71.8868 62.402 70.2967Z" fill="#FB554A"/>
<path d="M66.8238 56.5928H55.9045V63.3444H66.8238C68.6882 63.3444 70.1997 61.833 70.1997 59.9685C70.1996 58.1042 68.6882 56.5928 66.8238 56.5928Z" fill="#E4E4E4"/>
<path d="M72.2497 21.2515C71.4953 20.497 70.272 20.497 69.5176 21.2515L65.7379 25.0313C65.9087 25.2688 66.0987 25.4948 66.3097 25.7058L67.7952 27.1914C68.0062 27.4025 68.2324 27.5925 68.47 27.7633L72.2497 23.9836C73.0042 23.2292 73.0042 22.006 72.2497 21.2515Z" fill="#A19DAE"/>
<path d="M76.9561 17.5542L75.9471 16.5451C75.2198 15.8178 74.0406 15.8178 73.3134 16.5451L69.0414 20.817C68.4457 21.4127 68.4457 22.3785 69.0414 22.9742L70.5269 24.4597C71.1226 25.0554 72.0884 25.0554 72.6841 24.4597L76.9561 20.1877C77.6833 19.4605 77.6833 18.2815 76.9561 17.5542Z" fill="#4F4C5F"/>
<path d="M50.2793 33.5975H45.3947V27.7279C45.3947 26.5238 44.4152 25.5443 43.2111 25.5443H40.3055C39.1015 25.5443 38.1219 26.5238 38.1219 27.7279V33.5975H33.2372V27.7279C33.2372 23.8304 36.408 20.6597 40.3054 20.6597H43.211C47.1084 20.6597 50.2792 23.8306 50.2792 27.7279V33.5975H50.2793Z" fill="#4F4C5F"/>
<path d="M38.1219 27.7277C38.1219 27.6012 38.135 27.4778 38.1558 27.3572H33.247C33.2407 27.4799 33.2372 27.6035 33.2372 27.7277V33.5974H38.1219V27.7277Z" fill="#423E4F"/>
<path d="M45.3946 27.7277V33.5974H50.2792V27.7277C50.2792 27.6034 50.2759 27.4799 50.2694 27.3572H45.3606C45.3815 27.478 45.3946 27.6012 45.3946 27.7277Z" fill="#423E4F"/>
<path d="M50.4247 31.2205H33.092C31.6962 31.2205 30.8252 32.7261 31.5121 33.9412C32.2433 35.2346 33.3711 36.1555 34.1786 36.696C34.79 37.1051 35.1584 37.7899 35.1584 38.5255V44.2553H48.3579V38.5255C48.3579 37.7898 48.7264 37.1051 49.3377 36.696C50.1454 36.1555 51.273 35.2346 52.0042 33.9412C52.6915 32.7261 51.8204 31.2205 50.4247 31.2205Z" fill="#FB554A"/>
<path d="M55.9045 56.5928H62.4019V63.3444H55.9045V56.5928Z" fill="#D6D6D4"/>
<path d="M58.5386 51.7561V69.7068L41.7583 74.8532L24.9779 69.7068V51.7561L41.7583 47.5127L58.5386 51.7561Z" fill="#E4E4E4"/>
<path d="M24.9779 51.7561H28.8411V69.7068H24.9779V51.7561Z" fill="#D6D6D4"/>
<path d="M58.5386 49.5511V51.7562H24.9779V49.5511C24.9779 45.0851 28.5982 41.4634 33.0656 41.4634H50.4509C54.9184 41.4634 58.5386 45.0851 58.5386 49.5511Z" fill="#FFBE62"/>
<path d="M36.9288 41.4634H33.0656C28.5982 41.4634 24.9779 45.085 24.9779 49.5511V51.7562H28.8411V49.5511C28.8411 45.0851 32.4614 41.4634 36.9288 41.4634Z" fill="#FF995D"/>
<path d="M58.5386 69.7068V71.9133C58.5386 76.3793 54.9183 79.9996 50.4509 79.9996H33.0656C28.5982 79.9996 24.9779 76.3793 24.9779 71.9133V69.7068H58.5386Z" fill="#FFBE62"/>
<path d="M28.8411 71.9133V69.7068H24.9779V71.9133C24.9779 76.3794 28.5982 79.9996 33.0656 79.9996H36.9288C32.4614 79.9996 28.8411 76.3794 28.8411 71.9133Z" fill="#FF995D"/>
<path d="M31.4249 65.487C33.5307 65.487 35.2377 64.1276 35.2377 62.4506C35.2377 60.7737 33.5307 59.4143 31.4249 59.4143C29.3191 59.4143 27.6121 60.7737 27.6121 62.4506C27.6121 64.1276 29.3191 65.487 31.4249 65.487Z" fill="#FFC9DE"/>
<path d="M52.0918 65.487C54.1975 65.487 55.9046 64.1276 55.9046 62.4506C55.9046 60.7737 54.1975 59.4143 52.0918 59.4143C49.986 59.4143 48.2789 60.7737 48.2789 62.4506C48.2789 64.1276 49.986 65.487 52.0918 65.487Z" fill="#FFC9DE"/>
<path d="M33.6469 60.4934C33.1136 60.4934 32.6812 60.061 32.6812 59.5276V57.969C32.6812 57.4356 33.1136 57.0032 33.6469 57.0032C34.1803 57.0032 34.6127 57.4356 34.6127 57.969V59.5276C34.6127 60.061 34.1803 60.4934 33.6469 60.4934Z" fill="#423E4F"/>
<path d="M49.8697 60.4934C49.3363 60.4934 48.9039 60.061 48.9039 59.5276V57.969C48.9039 57.4356 49.3363 57.0032 49.8697 57.0032C50.4031 57.0032 50.8355 57.4356 50.8355 57.969V59.5276C50.8355 60.061 50.4031 60.4934 49.8697 60.4934Z" fill="#423E4F"/>
<path d="M41.7583 61.4215C40.6596 61.4215 39.6147 60.9456 38.8917 60.116C38.5412 59.7138 38.5831 59.1038 38.9852 58.7533C39.3872 58.4029 39.9973 58.4448 40.3478 58.8468C40.704 59.2554 41.2181 59.4897 41.7583 59.4897C42.2985 59.4897 42.8125 59.2554 43.1687 58.8468C43.519 58.4446 44.1292 58.4028 44.5314 58.7533C44.9336 59.1037 44.9754 59.7138 44.6249 60.116C43.9018 60.9456 42.857 61.4215 41.7583 61.4215Z" fill="#423E4F"/>
</g>
<defs>
<clipPath id="clip0">
<rect x="19.9995" y="15.9996" width="64" height="64" fill="white"/>
</clipPath>
</defs>
</svg>
