<svg width="96" height="96" viewBox="0 0 96 96" fill="none" xmlns="http://www.w3.org/2000/svg">
<circle cx="47.9995" cy="47.9998" r="48" fill="#FFDAD8"/>
<g clip-path="url(#clip0)">
<path d="M62.6814 44.7917C61.6145 44.7917 60.7495 43.9267 60.7495 42.8598V30.8201C60.7495 30.3077 60.953 29.8163 61.3153 29.4541L69.5176 21.2518C70.272 20.4973 71.4953 20.4973 72.2497 21.2518C73.0042 22.0063 73.0042 23.2293 72.2497 23.9838L64.6132 31.6204V42.8598C64.6132 43.9267 63.7482 44.7917 62.6814 44.7917Z" fill="#B2B0BC"/>
<path d="M64.1541 68.3651C70.2213 68.3651 75.1574 63.4289 75.1574 57.3617C75.1574 51.2943 70.2213 46.3583 64.1541 46.3583V42.4945C72.3517 42.4945 79.0211 49.1639 79.0211 57.3617C79.0211 65.5594 72.3517 72.2288 64.1541 72.2288V68.3651Z" fill="#4F4C5F"/>
<path d="M64.1541 46.3583C66.5984 46.3583 68.8585 47.1604 70.687 48.5141V44.4265C70.687 44.2846 70.683 44.1437 70.6756 44.0036C68.7055 43.0378 66.4922 42.4945 64.1541 42.4945V46.3583Z" fill="#423E4F"/>
<path d="M70.687 70.2969V66.2091C68.8585 67.5628 66.5985 68.3649 64.1541 68.3649V72.2287C66.4922 72.2287 68.7055 71.6854 70.6756 70.7196C70.683 70.5796 70.687 70.4388 70.687 70.2969Z" fill="#423E4F"/>
<path d="M62.6812 40.2838C60.3933 40.2838 58.5386 42.1385 58.5386 44.4264V70.2969C58.5386 72.5848 60.3933 74.4395 62.6812 74.4395C64.9691 74.4395 66.8238 72.5848 66.8238 70.2969V44.4264C66.8238 42.1385 64.9691 40.2838 62.6812 40.2838Z" fill="#FB554A"/>
<path d="M62.4018 70.2968V44.4264C62.4018 42.8363 63.2981 41.4562 64.6128 40.7618C64.0359 40.4571 63.3789 40.2839 62.6812 40.2839C60.3933 40.2839 58.5386 42.1386 58.5386 44.4264V70.2968C58.5386 72.5847 60.3933 74.4395 62.6812 74.4395C63.3789 74.4395 64.0359 74.2661 64.6128 73.9615C63.2981 73.2671 62.4018 71.8869 62.4018 70.2968Z" fill="#FB554A"/>
<path d="M66.8238 56.5928H55.9045V63.3444H66.8238C68.6882 63.3444 70.1997 61.833 70.1997 59.9685C70.1996 58.1042 68.6882 56.5928 66.8238 56.5928Z" fill="#E4E4E4"/>
<path d="M72.2496 21.2517C71.4952 20.4972 70.2719 20.4972 69.5175 21.2517L65.7378 25.0314C65.9085 25.269 66.0986 25.495 66.3095 25.7059L67.7951 27.1915C68.0061 27.4026 68.2322 27.5927 68.4698 27.7634L72.2496 23.9837C73.004 23.2293 73.004 22.0061 72.2496 21.2517Z" fill="#A19DAE"/>
<path d="M76.956 17.5543L75.947 16.5452C75.2196 15.8179 74.0405 15.8179 73.3133 16.5452L69.0413 20.8171C68.4456 21.4128 68.4456 22.3786 69.0413 22.9743L70.5268 24.4599C71.1225 25.0556 72.0883 25.0556 72.684 24.4599L76.956 20.1878C77.6832 19.4606 77.6832 18.2816 76.956 17.5543Z" fill="#4F4C5F"/>
<path d="M50.2792 33.5976H45.3946V27.728C45.3946 26.524 44.415 25.5444 43.211 25.5444H40.3054C39.1014 25.5444 38.1218 26.524 38.1218 27.728V33.5976H33.2371V27.728C33.2371 23.8306 36.4078 20.6598 40.3053 20.6598H43.2109C47.1083 20.6598 50.2791 23.8307 50.2791 27.728V33.5976H50.2792Z" fill="#4F4C5F"/>
<path d="M38.1218 27.7278C38.1218 27.6013 38.1349 27.478 38.1557 27.3573H33.2468C33.2405 27.48 33.2371 27.6036 33.2371 27.7278V33.5975H38.1218V27.7278Z" fill="#423E4F"/>
<path d="M45.3946 27.7278V33.5975H50.2792V27.7278C50.2792 27.6035 50.2759 27.48 50.2694 27.3573H45.3606C45.3815 27.4781 45.3946 27.6013 45.3946 27.7278Z" fill="#423E4F"/>
<path d="M50.4244 31.2206H33.0918C31.696 31.2206 30.825 32.7262 31.5118 33.9413C32.243 35.2347 33.3708 36.1557 34.1783 36.6961C34.7898 37.1052 35.1582 37.79 35.1582 38.5256V44.2555H48.3576V38.5256C48.3576 37.7899 48.7262 37.1052 49.3375 36.6961C50.1451 36.1557 51.2728 35.2347 52.0039 33.9413C52.6912 32.7262 51.8202 31.2206 50.4244 31.2206Z" fill="#FB554A"/>
<path d="M55.9045 56.5928H62.4019V63.3444H55.9045V56.5928Z" fill="#D6D6D4"/>
<path d="M58.5385 51.7563V69.7069L41.7581 74.8533L24.9778 69.7069V51.7563L41.7581 47.5128L58.5385 51.7563Z" fill="#E4E4E4"/>
<path d="M24.9778 51.7562H28.841V69.7069H24.9778V51.7562Z" fill="#D6D6D4"/>
<path d="M58.5385 49.5512V51.7563H24.9778V49.5512C24.9778 45.0852 28.5981 41.4635 33.0655 41.4635H50.4508C54.9183 41.4635 58.5385 45.0852 58.5385 49.5512Z" fill="#FFBE62"/>
<path d="M36.9287 41.4635H33.0655C28.5981 41.4635 24.9778 45.0851 24.9778 49.5512V51.7563H28.841V49.5512C28.841 45.0852 32.4613 41.4635 36.9287 41.4635Z" fill="#FF995D"/>
<path d="M58.5385 69.7069V71.9134C58.5385 76.3794 54.9182 79.9997 50.4508 79.9997H33.0655C28.5981 79.9997 24.9778 76.3794 24.9778 71.9134V69.7069H58.5385Z" fill="#FFBE62"/>
<path d="M28.841 71.9134V69.7069H24.9778V71.9134C24.9778 76.3795 28.5981 79.9997 33.0655 79.9997H36.9287C32.4613 79.9997 28.841 76.3795 28.841 71.9134Z" fill="#FF995D"/>
<path d="M31.4249 65.487C33.5307 65.487 35.2377 64.1276 35.2377 62.4506C35.2377 60.7737 33.5307 59.4143 31.4249 59.4143C29.3191 59.4143 27.6121 60.7737 27.6121 62.4506C27.6121 64.1276 29.3191 65.487 31.4249 65.487Z" fill="#FFC9DE"/>
<path d="M52.0919 65.487C54.1976 65.487 55.9047 64.1276 55.9047 62.4506C55.9047 60.7737 54.1976 59.4143 52.0919 59.4143C49.9861 59.4143 48.2791 60.7737 48.2791 62.4506C48.2791 64.1276 49.9861 65.487 52.0919 65.487Z" fill="#FFC9DE"/>
<path d="M33.6469 60.4937C33.1136 60.4937 32.6812 60.0613 32.6812 59.5279V57.9692C32.6812 57.4358 33.1136 57.0034 33.6469 57.0034C34.1803 57.0034 34.6127 57.4358 34.6127 57.9692V59.5279C34.6127 60.0613 34.1803 60.4937 33.6469 60.4937Z" fill="#423E4F"/>
<path d="M49.8696 60.4937C49.3362 60.4937 48.9038 60.0613 48.9038 59.5279V57.9692C48.9038 57.4358 49.3362 57.0034 49.8696 57.0034C50.403 57.0034 50.8354 57.4358 50.8354 57.9692V59.5279C50.8354 60.0613 50.403 60.4937 49.8696 60.4937Z" fill="#423E4F"/>
<path d="M41.7582 61.4216C40.6595 61.4216 39.6146 60.9458 38.8916 60.1161C38.541 59.7139 38.583 59.1039 38.985 58.7534C39.3871 58.403 39.9972 58.4449 40.3477 58.8469C40.7039 59.2555 41.218 59.4899 41.7582 59.4899C42.2984 59.4899 42.8124 59.2555 43.1686 58.8469C43.5189 58.4447 44.1291 58.4029 44.5313 58.7534C44.9334 59.1038 44.9753 59.7139 44.6248 60.1161C43.9017 60.9458 42.8568 61.4216 41.7582 61.4216Z" fill="#423E4F"/>
</g>
<defs>
<clipPath id="clip0">
<rect width="64" height="64" fill="white" transform="translate(19.9995 15.9998)"/>
</clipPath>
</defs>
</svg>
