<svg width="96" height="96" viewBox="0 0 96 96" fill="none" xmlns="http://www.w3.org/2000/svg">
<circle cx="47.9999" cy="48" r="48" fill="white"/>
<g clip-path="url(#clip0)">
<path d="M64.8454 71.2717V75.5861C64.8454 78.025 56.9447 80.0001 47.1905 80.0001C37.4364 80.0001 29.5356 78.025 29.5356 75.5861V71.2717H64.8454Z" fill="#BE7C1E"/>
<path d="M75.8791 41.3804V63.4487C75.8791 68.934 63.0342 73.3797 47.1903 73.3797C31.3459 73.3797 18.501 68.934 18.501 63.4487V41.3804H75.8791Z" fill="#FFC362"/>
<path d="M29.9768 52.7138C29.0994 52.4931 28.242 52.2646 27.43 52.0175C26.618 51.7704 25.8035 51.4965 25.0511 51.2153C24.4847 51.0175 23.8636 51.3085 23.6537 51.8705C23.4437 52.4325 23.7211 53.0595 24.2787 53.2821C25.0741 53.58 25.9193 53.8646 26.7903 54.1293C27.6409 54.3876 28.5369 54.6327 29.4529 54.8563C29.5388 54.8773 29.6277 54.888 29.7165 54.8885C30.2742 54.8876 30.7429 54.4706 30.8098 53.9169C30.8762 53.3632 30.5193 52.8471 29.9778 52.7138H29.9768Z" fill="#FDD7AD"/>
<path d="M58.925 53.777C57.9777 53.9196 57.0183 54.0436 56.0461 54.1491C55.0745 54.254 54.0965 54.3419 53.1112 54.4118C52.1268 54.4821 51.1385 54.5338 50.1508 54.5695C48.1747 54.6378 46.206 54.6378 44.231 54.5695C43.2422 54.5338 42.2549 54.4816 41.2691 54.4118C40.2838 54.3419 39.3053 54.254 38.3341 54.1491C37.7345 54.0944 37.2023 54.5304 37.1369 55.1285C37.072 55.7272 37.4987 56.2672 38.0959 56.3424C39.0949 56.4508 40.1002 56.5406 41.1114 56.6129C42.1231 56.6851 43.1368 56.7389 44.1524 56.775C45.167 56.8106 46.1797 56.8282 47.1904 56.8282C48.2011 56.8282 49.2138 56.8106 50.2279 56.775C51.243 56.7384 52.2567 56.6842 53.2689 56.6129C54.281 56.5416 55.2864 56.4513 56.2849 56.3424C57.2844 56.233 58.2736 56.1056 59.2516 55.9606C59.8547 55.8692 60.2697 55.3063 60.1784 54.7033C60.0866 54.1002 59.5236 53.6857 58.9206 53.777H58.925Z" fill="#FDD7AD"/>
<path d="M70.1634 35.4327C73.7605 37.0879 75.8791 39.1513 75.8791 41.3803C75.8791 46.8641 63.0352 51.3107 47.1903 51.3107C31.3449 51.3107 18.501 46.8641 18.501 41.3803C18.501 35.896 31.3449 31.4494 47.1903 31.4494C50.306 31.4435 53.4197 31.6242 56.5143 31.9899" fill="#BE7C1E"/>
<path d="M51.9241 36.0063C50.4344 35.9072 48.8563 35.8628 47.1903 35.8628C34.942 35.8628 27.1302 38.5551 24.162 40.453C23.8514 40.6596 23.6654 41.0077 23.6654 41.3803C23.6654 41.7528 23.8514 42.1005 24.162 42.307C26.4901 43.7967 31.7863 45.7718 39.8633 46.5549C42.1035 46.7756 44.5419 46.8972 47.1903 46.8972C51.9529 46.9373 56.7062 46.4675 61.3692 45.4959L61.3804 45.4847C64.4819 44.9217 67.4687 43.848 70.2186 42.307C70.5286 42.1005 70.7152 41.7528 70.7152 41.3803C70.7152 41.0077 70.5286 40.6596 70.2186 40.453C69.2289 39.85 68.183 39.3437 67.0961 38.9413L51.9241 36.0063Z" fill="#59474E"/>
<path d="M80.26 23.891L70.1635 35.4328L67.0962 38.9415L61.3805 45.4848L61.3693 45.496C56.7063 46.4677 51.953 46.9374 47.1904 46.8973C44.542 46.8973 42.1036 46.7758 39.8634 46.5551L51.9242 36.0065L56.5144 31.99L73.5072 17.1377C75.409 15.524 78.2307 15.6397 79.9944 17.4034C81.7585 19.167 81.8737 21.9892 80.26 23.891Z" fill="#DB9D41"/>
</g>
<defs>
<clipPath id="clip0">
<rect width="64" height="64" fill="white" transform="translate(17.9999 16)"/>
</clipPath>
</defs>
</svg>
