<svg width="96" height="96" viewBox="0 0 96 96" fill="none" xmlns="http://www.w3.org/2000/svg">
<circle cx="48" cy="48" r="48" fill="#FFE1D8"/>
<g clip-path="url(#clip0)">
<path d="M64.8454 71.2717V75.5861C64.8454 78.025 56.9447 80.0001 47.1905 80.0001C37.4364 80.0001 29.5356 78.025 29.5356 75.5861V71.2717H64.8454Z" fill="#BE7C1E"/>
<path d="M75.8794 41.3804V63.4487C75.8794 68.934 63.0344 73.3797 47.1905 73.3797C31.3462 73.3797 18.5012 68.934 18.5012 63.4487V41.3804H75.8794Z" fill="#FFC362"/>
<path d="M29.9769 52.7138C29.0995 52.4931 28.2421 52.2646 27.4301 52.0175C26.6181 51.7704 25.8037 51.4965 25.0512 51.2153C24.4848 51.0175 23.8638 51.3085 23.6538 51.8705C23.4439 52.4325 23.7212 53.0595 24.2788 53.2821C25.0742 53.58 25.9194 53.8646 26.7905 54.1293C27.641 54.3876 28.537 54.6327 29.453 54.8563C29.5389 54.8773 29.6278 54.888 29.7167 54.8885C30.2743 54.8876 30.743 54.4706 30.8099 53.9169C30.8763 53.3632 30.5194 52.8471 29.9779 52.7138H29.9769Z" fill="#FDD7AD"/>
<path d="M58.9252 53.777C57.978 53.9196 57.0185 54.0436 56.0464 54.1491C55.0747 54.254 54.0967 54.3419 53.1114 54.4118C52.127 54.4821 51.1388 54.5338 50.151 54.5695C48.175 54.6378 46.2063 54.6378 44.2312 54.5695C43.2425 54.5338 42.2552 54.4816 41.2694 54.4118C40.284 54.3419 39.3056 54.254 38.3344 54.1491C37.7348 54.0944 37.2026 54.5304 37.1371 55.1285C37.0722 55.7272 37.499 56.2672 38.0961 56.3424C39.0951 56.4508 40.1005 56.5406 41.1117 56.6129C42.1234 56.6851 43.137 56.7389 44.1526 56.775C45.1672 56.8106 46.1799 56.8282 47.1906 56.8282C48.2014 56.8282 49.214 56.8106 50.2282 56.775C51.2433 56.7384 52.2569 56.6842 53.2691 56.6129C54.2813 56.5416 55.2866 56.4513 56.2852 56.3424C57.2846 56.233 58.2739 56.1056 59.2519 55.9606C59.8549 55.8692 60.2699 55.3063 60.1786 54.7033C60.0868 54.1002 59.5239 53.6857 58.9208 53.777H58.9252Z" fill="#FDD7AD"/>
<path d="M70.1637 35.4327C73.7608 37.0879 75.8794 39.1513 75.8794 41.3803C75.8794 46.8641 63.0354 51.3107 47.1905 51.3107C31.3452 51.3107 18.5012 46.8641 18.5012 41.3803C18.5012 35.896 31.3452 31.4494 47.1905 31.4494C50.3062 31.4435 53.4199 31.6242 56.5146 31.9899" fill="#BE7C1E"/>
<path d="M51.9242 36.0063C50.4345 35.9072 48.8564 35.8628 47.1904 35.8628C34.9421 35.8628 27.1303 38.5551 24.1621 40.453C23.8516 40.6596 23.6655 41.0077 23.6655 41.3803C23.6655 41.7528 23.8516 42.1005 24.1621 42.307C26.4902 43.7967 31.7864 45.7718 39.8634 46.5549C42.1036 46.7756 44.542 46.8972 47.1904 46.8972C51.953 46.9373 56.7063 46.4675 61.3693 45.4959L61.3805 45.4847C64.482 44.9217 67.4688 43.848 70.2187 42.307C70.5288 42.1005 70.7153 41.7528 70.7153 41.3803C70.7153 41.0077 70.5288 40.6596 70.2187 40.453C69.229 39.85 68.1831 39.3437 67.0962 38.9413L51.9242 36.0063Z" fill="#59474E"/>
<path d="M80.2601 23.891L70.1636 35.4328L67.0963 38.9415L61.3806 45.4848L61.3694 45.496C56.7064 46.4677 51.9531 46.9374 47.1905 46.8973C44.5421 46.8973 42.1037 46.7758 39.8635 46.5551L51.9243 36.0065L56.5145 31.99L73.5073 17.1377C75.4091 15.524 78.2309 15.6397 79.9945 17.4034C81.7586 19.167 81.8738 21.9892 80.2601 23.891Z" fill="#DB9D41"/>
</g>
<defs>
<clipPath id="clip0">
<rect width="64" height="64" fill="white" transform="translate(18 16)"/>
</clipPath>
</defs>
</svg>
