<svg width="48" height="48" viewBox="0 0 48 48" fill="none" xmlns="http://www.w3.org/2000/svg">
<g clip-path="url(#clip0)">
<path d="M21.8844 12.2541C22.0488 12.0472 22.3326 11.9725 22.5231 11.7891C22.9878 11.3408 22.6479 10.5077 22.0986 10.1678C21.5497 9.828 20.8707 9.77417 20.2804 9.51123C19.6904 9.24866 19.1572 8.59607 19.4066 8.00135C19.7728 7.21326 20.3632 7.30408 20.5448 6.73206C20.7261 6.15967 20.1002 5.56641 20.5477 4.6659C20.9952 3.76539 22.1854 2.88173 21.7797 1.93983C21.4365 1.2715 20.5155 1.16859 19.7758 1.30666C19.036 1.44472 18.2783 1.73476 17.5536 1.53114C16.9391 1.35829 16.4766 0.86171 15.9181 0.552995C14.3441 -0.317487 10.7659 -0.198469 10.7659 1.18214C10.7659 3.17067 11.6745 3.45265 11.8755 4.00672C12.3787 5.39137 12.88 6.94007 12.2996 8.29431C12.0535 8.86926 11.6316 9.34863 11.2171 9.81738L7.93545 13.5264C7.86624 13.6047 7.7593 13.6373 7.65786 13.6124C6.55264 13.3418 5.27457 14.154 5.09806 15.2871C4.89371 16.5956 5.21231 17.3419 4.81424 18.1864C4.41617 19.0312 2.34379 20.2104 2.34379 21.0274C2.34379 23.7693 7.7095 24.5394 8.05593 25.8369C8.35989 27.6152 8.66421 29.3935 8.96853 31.1718C9.61343 34.9412 9.3915 33.9353 14.2826 47.0822C14.6569 48.0878 15.1904 48.3149 15.9485 47.5242C17.7524 45.6426 19.6377 43.6072 20.1112 41.0471C20.3405 39.8063 20.2167 38.5224 20.4247 37.278C20.6323 36.0333 21.2955 34.7343 22.4912 34.3227C23.0028 34.1469 23.5792 34.1447 24.0388 33.8605C24.4808 33.587 24.7353 33.1021 25.0038 32.6576C26.105 30.8368 27.7782 29.3657 29.7279 28.5055C30.0699 28.3546 30.4409 28.2059 30.6511 27.8972C30.8694 27.5767 30.8628 27.1578 30.9898 26.7916C31.307 25.8801 32.5884 25.5113 33.3746 26.0339C33.4896 26.1104 33.6427 26.0965 33.7379 25.9966C34.1217 25.5941 34.4425 25.1319 34.6853 24.6324C34.7351 24.5299 34.7234 24.4065 34.6483 24.3204C33.4376 22.9336 33.1948 21.004 33.5735 20.6894C34.1524 20.2082 36.8547 20.3045 36.565 20.9784C36.0036 22.2846 38.2426 22.2685 38.2057 24.2508C38.1914 25.0071 39.3695 26.8788 40.4282 26.0943C41.4869 25.3099 41.377 22.4527 42.2764 20.7865C43.7915 17.9806 44.3452 16.7241 45.4958 15.9441C45.9155 15.6595 45.4826 11.4558 44.5462 11.2599C43.6098 11.064 37.723 13.4703 37.4333 13.7589C37.144 14.0478 37.1458 15.1139 36.9038 15.2545C36.6613 15.3955 35.0149 15.7273 34.5351 15.5614C34.0558 15.3951 33.3559 13.8885 32.3067 14.1606C31.2572 14.4327 31.6432 16.1653 31.2572 16.3579C30.8712 16.5502 28.4253 16.589 27.0787 15.7731C26.7422 15.5691 26.41 15.3336 26.0237 15.2556C25.6446 15.1791 25.2539 15.2622 24.8675 15.2706C23.8509 15.2933 20.8202 13.5945 21.8844 12.2541Z" fill="#58C748"/>
<path d="M33.5731 20.689C33.5746 20.6879 33.5764 20.6868 33.5779 20.6857C33.0989 20.2884 31.1539 20.2895 30.6727 20.689C30.2824 21.0139 30.5534 23.0595 31.868 24.4526C31.5828 25.1 31.1679 25.6904 30.6552 26.1789C29.9022 25.4549 28.4323 25.8061 28.0895 26.7916C27.9624 27.1578 27.9686 27.5764 27.7504 27.8972C27.5405 28.2059 27.1696 28.3546 26.8275 28.5054C24.8778 29.3657 23.2042 30.8367 22.1034 32.6575C21.835 33.1021 21.5805 33.5866 21.1384 33.8602C20.6788 34.1447 20.1021 34.1465 19.5908 34.3227C18.3951 34.734 17.7319 36.0333 17.5243 37.278C17.3163 38.5224 17.4401 39.806 17.2108 41.0467C16.8252 43.1323 15.5028 44.8692 14.0508 46.4589C14.1266 46.6629 14.2039 46.8705 14.2826 47.0819C14.6569 48.0878 15.1904 48.3149 15.9485 47.5242C17.7524 45.6426 19.6377 43.6072 20.1112 41.0467C20.3405 39.806 20.2167 38.5224 20.4247 37.278C20.6323 36.0333 21.2955 34.7343 22.4912 34.3227C23.0028 34.1465 23.5792 34.1447 24.0388 33.8602C24.4808 33.5866 24.7354 33.1021 25.0038 32.6575C26.105 30.8367 27.7782 29.3657 29.7279 28.5054C30.07 28.3546 30.4409 28.2059 30.6511 27.8972C30.8694 27.5764 30.8628 27.1578 30.9899 26.7916C31.307 25.8801 32.5884 25.5113 33.3746 26.0339C33.4896 26.1104 33.6427 26.0965 33.7379 25.9965C34.1217 25.5937 34.4425 25.1319 34.6853 24.6324C34.7351 24.5298 34.7234 24.4061 34.6483 24.3204C33.4373 22.9332 33.1948 21.0036 33.5731 20.689Z" fill="#51B842"/>
<path d="M45.4959 15.9445C44.7708 16.4348 44.2834 17.116 43.6414 18.2534H4.78019C4.79191 18.2314 4.80326 18.2091 4.81388 18.1868C5.21232 17.3419 4.89335 16.5952 5.09843 15.2867C5.27457 14.1537 6.55228 13.3414 7.65824 13.6121C7.75968 13.637 7.86662 13.6044 7.93583 13.526C9.0297 12.29 10.1232 11.0537 11.2171 9.81738C11.632 9.349 12.0535 8.8689 12.3 8.29431C12.88 6.94043 12.3791 5.39136 11.8755 4.00708C11.6745 3.45264 10.7655 3.17066 10.7655 1.18213C10.7655 -0.197754 14.3438 -0.317871 15.9185 0.553345C16.4766 0.861695 16.9395 1.35901 17.5536 1.53076C18.2784 1.73474 19.0364 1.4447 19.7762 1.30664C20.5155 1.16858 21.4369 1.27185 21.7804 1.94019C22.1855 2.88208 20.9953 3.76575 20.5478 4.66589C20.0999 5.56714 20.7265 6.16004 20.5448 6.73279C20.3628 7.30444 19.7732 7.21362 19.4067 8.00171C19.1573 8.59571 19.6901 9.24866 20.2808 9.51123C20.8708 9.77417 21.5494 9.828 22.0994 10.1678C22.6484 10.5081 22.9878 11.3416 22.5227 11.7887C22.3323 11.9733 22.0492 12.0476 21.8848 12.2542C20.8202 13.5945 23.8514 15.2933 24.8672 15.2703C25.2539 15.2615 25.6447 15.1783 26.0237 15.2556C26.4104 15.334 26.7419 15.5687 27.0795 15.7734C28.4253 16.5886 30.8713 16.5498 31.2569 16.3579C31.6436 16.1657 31.2569 14.4331 32.3068 14.1606C33.3556 13.8882 34.0558 15.3948 34.5352 15.561C35.0149 15.7273 36.661 15.3948 36.9038 15.2549C37.1455 15.1139 37.1437 14.0475 37.4338 13.7589C37.7227 13.47 43.6095 11.0632 44.5463 11.2592C45.4823 11.4554 45.9156 15.6595 45.4959 15.9445Z" fill="#FFB300"/>
<path d="M18.88 1.94016C19.285 2.88169 18.0949 3.76535 17.6474 4.66587C17.1995 5.56674 17.8261 6.15964 17.6444 6.73239C17.4624 7.30442 16.8728 7.2136 16.5066 8.00168C16.2569 8.59568 16.7897 9.24863 17.3804 9.5112C17.9703 9.77378 18.6489 9.82798 19.199 10.1678C19.7483 10.5077 20.0874 11.3415 19.6223 11.7883C19.4319 11.9729 19.1488 12.0472 18.9844 12.2538C17.9202 13.5945 20.9509 15.2933 21.9672 15.2702C22.3539 15.2614 22.7443 15.1783 23.1233 15.2556C23.51 15.334 23.8414 15.5687 24.1791 15.7734C25.5249 16.5886 27.9708 16.5498 28.3564 16.3575C28.3879 16.3421 28.4139 16.315 28.4363 16.2806C27.9434 16.1707 27.4658 16.0074 27.0795 15.7734C26.7418 15.5687 26.4104 15.334 26.0237 15.2556C25.6447 15.1783 25.2539 15.2614 24.8672 15.2702C23.8513 15.2933 20.8202 13.5945 21.8848 12.2538C22.0492 12.0472 22.3323 11.9729 22.5227 11.7883C22.9878 11.3412 22.6487 10.5077 22.0994 10.1678C21.5493 9.82798 20.8707 9.77378 20.2808 9.5112C19.6901 9.24863 19.1572 8.59568 19.4066 8.00168C19.7732 7.2136 20.3628 7.30442 20.5448 6.73239C20.7264 6.15964 20.0999 5.56674 20.5477 4.66587C20.9952 3.76572 22.1854 2.88205 21.7804 1.94016C21.4369 1.27182 20.5155 1.16855 19.7761 1.30661C19.3718 1.38205 18.9624 1.50254 18.5556 1.56333C18.6885 1.66147 18.8002 1.78489 18.88 1.94016Z" fill="#FFA000"/>
<path d="M44.5462 11.2591C44.2145 11.1895 43.2619 11.447 42.1567 11.8209C42.724 13.0199 42.9287 15.7181 42.5954 15.9444C41.8703 16.4348 41.3829 17.1159 40.7409 18.2534H43.6413C44.2833 17.1159 44.7707 16.4351 45.4958 15.9444C45.9155 15.6595 45.4823 11.4554 44.5462 11.2591Z" fill="#FFA000"/>
<path d="M43.6414 18.2534C43.2653 18.9217 42.8372 19.7486 42.2765 20.7868C41.3775 22.4527 41.4866 25.3095 40.4279 26.0936C39.3695 26.8787 38.1918 25.0063 38.2054 24.2512C38.2431 22.2681 36.0041 22.2846 36.5647 20.978C36.8548 20.3038 34.1525 20.2082 33.5735 20.689C33.1952 21.0036 33.4373 22.9332 34.6484 24.3204C34.7234 24.4064 34.7351 24.5299 34.685 24.6324C34.4425 25.1319 34.1217 25.5933 33.7387 25.9962C33.6431 26.0961 33.49 26.1101 33.375 26.0335C32.5884 25.5106 31.3067 25.8801 30.9903 26.7912C30.8625 27.1582 30.8694 27.5764 30.6508 27.8968C30.441 28.2059 30.0696 28.3546 29.7287 28.5054C27.7786 29.366 26.105 30.8367 25.0038 32.6575C24.9101 32.8128 24.8182 32.9721 24.7185 33.1267H9.32304C9.20512 32.5704 9.10661 31.9815 8.96818 31.1718C8.66459 29.3931 8.36027 27.6148 8.05558 25.8369C7.70951 24.5397 2.34379 23.7692 2.34379 21.027C2.34379 20.2313 4.31034 19.0916 4.78019 18.2534H43.6414Z" fill="#F5F5F5"/>
<path d="M33.5731 20.689C33.5746 20.6879 33.5764 20.6868 33.5779 20.6857C33.0993 20.2884 31.1539 20.2895 30.6727 20.689C30.2824 21.0135 30.553 23.0591 31.8677 24.4529C31.5828 25.1 31.1679 25.69 30.6555 26.1785C29.9022 25.4545 28.4319 25.8061 28.0895 26.7908C27.962 27.1581 27.9686 27.576 27.7504 27.8968C27.5405 28.2059 27.1692 28.3546 26.8279 28.5054C24.8778 29.3657 23.2042 30.8367 22.103 32.6572C22.0093 32.8128 21.9177 32.9721 21.8181 33.1267H24.7185C24.8181 32.9721 24.91 32.8128 25.0038 32.6572C26.105 30.8367 27.7782 29.3657 29.7283 28.5054C30.0696 28.3546 30.4409 28.2059 30.6508 27.8968C30.8694 27.5764 30.8624 27.1581 30.9899 26.7908C31.3067 25.8797 32.5884 25.5106 33.375 26.0335C33.49 26.11 33.6431 26.0961 33.7383 25.9958C34.1217 25.5933 34.4422 25.1319 34.685 24.6324C34.7348 24.5298 34.723 24.4061 34.648 24.3204C33.4373 22.9332 33.1948 21.0036 33.5731 20.689Z" fill="#EBE3D4"/>
<path d="M40.7409 18.2534C40.3648 18.9217 39.9367 19.7486 39.3761 20.7868C38.7835 21.8843 38.6286 23.4986 38.2895 24.6968C38.5755 25.5497 39.5431 26.7502 40.4278 26.0939C41.4865 25.3095 41.3774 22.4527 42.2765 20.7868C42.8371 19.7486 43.2652 18.9217 43.6413 18.2534H40.7409Z" fill="#EBE3D4"/>
<path d="M17.7225 20.4961C15.0447 20.4961 12.8665 22.6743 12.8665 25.3521C12.8665 28.0298 15.0447 30.2084 17.7225 30.2084C20.4002 30.2084 22.5784 28.0298 22.5784 25.3521C22.5784 22.6743 20.4002 20.4961 17.7225 20.4961ZM17.7225 28.8018C15.82 28.8018 14.2728 27.2545 14.2728 25.3521C14.2728 23.45 15.82 21.9023 17.7225 21.9023C19.6246 21.9023 21.1722 23.45 21.1722 25.3521C21.1722 27.2545 19.6246 28.8018 17.7225 28.8018Z" fill="#03A9F4"/>
<path d="M19.6392 24.6489H19.4198L19.5748 24.494C19.8494 24.2194 19.8494 23.774 19.5748 23.4998C19.3005 23.2251 18.8551 23.2251 18.5805 23.4998L18.4256 23.6547V23.4353C18.4256 23.0471 18.1106 22.7322 17.7225 22.7322C17.3343 22.7322 17.0193 23.0471 17.0193 23.4353V23.6547L16.8641 23.4998C16.5898 23.2251 16.1445 23.2251 15.8698 23.4998C15.5951 23.7744 15.5951 24.2194 15.8698 24.494L16.0247 24.6489H15.8057C15.4175 24.6489 15.1026 24.9639 15.1026 25.3521C15.1026 25.7402 15.4175 26.0552 15.8057 26.0552H16.0247L15.8698 26.2101C15.5951 26.4847 15.5951 26.9301 15.8698 27.2047C16.0071 27.342 16.1869 27.4105 16.3671 27.4105C16.5469 27.4105 16.7267 27.342 16.8641 27.2047L17.0193 27.0494V27.2688C17.0193 27.657 17.3339 27.9719 17.7225 27.9719C18.1106 27.9719 18.4256 27.657 18.4256 27.2688V27.0494L18.5805 27.2047C18.7178 27.3417 18.8976 27.4105 19.0778 27.4105C19.2576 27.4105 19.4374 27.342 19.5748 27.2047C19.8494 26.9301 19.8494 26.4847 19.5748 26.2101L19.4198 26.0552H19.6392C20.0274 26.0552 20.3423 25.7402 20.3423 25.3521C20.3423 24.9639 20.0274 24.6489 19.6392 24.6489Z" fill="#03A9F4"/>
</g>
<defs>
<clipPath id="clip0">
<rect width="48" height="48" fill="white"/>
</clipPath>
</defs>
</svg>
