<svg width="96" height="96" viewBox="0 0 96 96" fill="none" xmlns="http://www.w3.org/2000/svg">
<circle cx="48" cy="48" r="48" fill="white"/>
<g clip-path="url(#clip0)">
<path d="M47.0961 16.2067L18.4375 30.042C18.0781 30.2155 17.8499 30.5792 17.8499 30.9782V65.0217C17.8499 65.4207 18.0782 65.7845 18.4375 65.958L47.0961 79.7932C47.6672 80.069 48.333 80.069 48.9041 79.7932L77.5627 65.958C77.9221 65.7845 78.1504 65.4207 78.1504 65.0217V30.9782C78.1504 30.5792 77.922 30.2155 77.5627 30.042L48.9041 16.2067C48.333 15.9311 47.6672 15.9311 47.0961 16.2067Z" fill="#FFE17D"/>
<path d="M18.0227 30.4092C17.9135 30.5756 17.8499 30.7714 17.8499 30.9783V65.0218C17.8499 65.4208 18.0782 65.7846 18.4375 65.9581L47.0961 79.7932C47.3816 79.9311 47.6909 79.9999 48.0001 79.9999V44.8811L18.0227 30.4092Z" fill="#FFC350"/>
<path d="M77.9774 30.4092C78.0866 30.5756 78.1502 30.7714 78.1502 30.9783V65.0218C78.1502 65.4208 77.9219 65.7846 77.5626 65.9581L48.904 79.7932C48.6185 79.9311 48.3092 80.0001 48 80.0001V44.8811L77.9774 30.4092Z" fill="#FFD164"/>
<path d="M26.4257 63.2072C26.2745 63.2072 26.1201 63.1737 25.975 63.1037L21.5503 60.9676C21.0326 60.7178 20.8163 60.0964 21.0661 59.5797C21.3148 59.0629 21.9382 58.8477 22.454 59.0954L26.8786 61.2317C27.3963 61.4814 27.6126 62.1028 27.3628 62.6196C27.1842 62.9909 26.8126 63.2072 26.4257 63.2072Z" fill="#FFE17D"/>
<path d="M30.4981 60.5564C30.3469 60.5564 30.1925 60.5229 30.0474 60.4529L21.5564 56.3541C21.0396 56.1044 20.8224 55.483 21.0721 54.9662C21.3209 54.4505 21.9453 54.2342 22.46 54.482L30.9509 58.5807C31.4676 58.8305 31.6849 59.4519 31.4351 59.9686C31.2566 60.34 30.885 60.5564 30.4981 60.5564Z" fill="#FFF6D8"/>
<path d="M67.8188 35.2965L37.736 20.7637L29.806 24.6074L59.9563 39.1628L67.8188 35.2965Z" fill="#FF8087"/>
<path d="M59.9562 39.1628V50.4386C59.9562 50.8219 60.3568 51.0734 60.7021 50.9068L67.2311 47.7549C67.5904 47.5814 67.8187 47.2176 67.8187 46.8186V35.2966L59.9562 39.1628Z" fill="#E6646E"/>
</g>
<defs>
<clipPath id="clip0">
<rect width="64" height="64" fill="white" transform="translate(16 16)"/>
</clipPath>
</defs>
</svg>
