<svg width="127" height="208" viewBox="0 0 127 208" fill="none" xmlns="http://www.w3.org/2000/svg">
<circle cx="44.2857" cy="200.714" r="6.42857" transform="rotate(-90 44.2857 200.714)" fill="#FBE9D8"/>
<circle cx="6.42857" cy="200.714" r="6.42857" transform="rotate(-90 6.42857 200.714)" fill="#FBE9D8"/>
<circle cx="44.2857" cy="161.857" r="6.42857" transform="rotate(-90 44.2857 161.857)" fill="#FBE9D8"/>
<circle cx="6.42857" cy="161.857" r="6.42857" transform="rotate(-90 6.42857 161.857)" fill="#FBE9D8"/>
<circle cx="44.2857" cy="123" r="6.42857" transform="rotate(-90 44.2857 123)" fill="#FBE9D8"/>
<circle cx="6.42857" cy="123" r="6.42857" transform="rotate(-90 6.42857 123)" fill="#FBE9D8"/>
<circle cx="44.2857" cy="84.143" r="6.42857" transform="rotate(-90 44.2857 84.143)" fill="#FBE9D8"/>
<circle cx="6.42857" cy="84.143" r="6.42857" transform="rotate(-90 6.42857 84.143)" fill="#FBE9D8"/>
<circle cx="44.2857" cy="45.2858" r="6.42857" transform="rotate(-90 44.2857 45.2858)" fill="#FBE9D8"/>
<circle cx="6.42857" cy="45.2858" r="6.42857" transform="rotate(-90 6.42857 45.2858)" fill="#FBE9D8"/>
<circle cx="44.2857" cy="6.42861" r="6.42857" transform="rotate(-90 44.2857 6.42861)" fill="#FBE9D8"/>
<circle cx="6.42857" cy="6.42861" r="6.42857" transform="rotate(-90 6.42857 6.42861)" fill="#FBE9D8"/>
<circle cx="82.1428" cy="200.714" r="6.42857" transform="rotate(-90 82.1428 200.714)" fill="#FBE9D8"/>
<circle cx="82.1428" cy="161.857" r="6.42857" transform="rotate(-90 82.1428 161.857)" fill="#FBE9D8"/>
<circle cx="82.1428" cy="123" r="6.42857" transform="rotate(-90 82.1428 123)" fill="#FBE9D8"/>
<circle cx="82.1428" cy="84.143" r="6.42857" transform="rotate(-90 82.1428 84.143)" fill="#FBE9D8"/>
<circle cx="82.1428" cy="45.2858" r="6.42857" transform="rotate(-90 82.1428 45.2858)" fill="#FBE9D8"/>
<circle cx="82.1428" cy="6.42861" r="6.42857" transform="rotate(-90 82.1428 6.42861)" fill="#FBE9D8"/>
<circle cx="120" cy="200.714" r="6.42857" transform="rotate(-90 120 200.714)" fill="#FBE9D8"/>
<circle cx="120" cy="161.857" r="6.42857" transform="rotate(-90 120 161.857)" fill="#FBE9D8"/>
<circle cx="120" cy="123" r="6.42857" transform="rotate(-90 120 123)" fill="#FBE9D8"/>
<circle cx="120" cy="84.143" r="6.42857" transform="rotate(-90 120 84.143)" fill="#FBE9D8"/>
<circle cx="120" cy="45.2858" r="6.42857" transform="rotate(-90 120 45.2858)" fill="#FBE9D8"/>
<circle cx="120" cy="6.42861" r="6.42857" transform="rotate(-90 120 6.42861)" fill="#FBE9D8"/>
</svg>
