<svg width="96" height="96" viewBox="0 0 96 96" fill="none" xmlns="http://www.w3.org/2000/svg">
<circle cx="48" cy="47.9998" r="48" fill="#FFF1BC"/>
<path d="M63.8457 72.2498H29.5137V23.7498H56.5967L63.8457 30.9993V72.2498Z" fill="#FFD89E"/>
<g clip-path="url(#clip0)">
<path d="M40.5774 35.3748L44.8877 34.7283L45.2045 34.8619L45.1571 35.0947C44.8791 36.509 43.6395 37.5293 42.1981 37.53H41.8705L40.5774 35.3748Z" fill="#805333"/>
<path d="M37.1294 32.5729V33.6979L41.8018 36.2151C43.2695 36.1418 44.5259 35.6138 45.2048 34.8617C45.543 34.5147 45.7378 34.0529 45.7501 33.5686V32.5729H37.1294Z" fill="#A56A43"/>
<path d="M37.4268 33.5342C37.2332 33.251 37.1296 32.916 37.1294 32.573C37.1294 31.3596 38.5259 30.3423 40.3988 30.0643L43.9419 30.4695C45.166 30.9975 46.1251 32.0363 45.6143 33.2324C45.1359 34.3553 43.4591 35.1829 41.4397 35.1829C41.1682 35.1829 41.0928 35.1721 41.0691 35.1721L37.4268 33.5342Z" fill="#CB8252"/>
<path d="M44.7802 33.004C44.3965 33.7476 43.056 34.2971 41.4396 34.2971C40.8764 34.3008 40.3153 34.2283 39.7715 34.0816L38.2629 33.2411C38.1619 33.1269 38.085 32.9935 38.0366 32.8489C38.6358 32.4739 39.5646 31.7713 39.7177 31.0816C39.931 30.1204 41.625 29.0191 42.5172 29.1247C43.5603 29.2605 44.1077 30.8187 44.653 31.9394C44.6853 32.0062 44.8427 32.3252 44.8685 32.3402C44.9255 32.5646 44.8938 32.8023 44.7802 33.004Z" fill="#C03A2B"/>
<path d="M39.7158 31.0817C39.5606 31.7713 38.6382 32.4761 38.0347 32.8489C37.761 31.9631 38.8106 31.3403 39.7158 31.0817Z" fill="#805333"/>
<path d="M41.2241 31.0643C41.3431 31.0643 41.4396 30.9678 41.4396 30.8488C41.4396 30.7298 41.3431 30.6333 41.2241 30.6333C41.105 30.6333 41.0085 30.7298 41.0085 30.8488C41.0085 30.9678 41.105 31.0643 41.2241 31.0643Z" fill="#E64C3C"/>
<path d="M42.517 31.7111C42.6361 31.7111 42.7325 31.6146 42.7325 31.4955C42.7325 31.3765 42.6361 31.28 42.517 31.28C42.398 31.28 42.3015 31.3765 42.3015 31.4955C42.3015 31.6146 42.398 31.7111 42.517 31.7111Z" fill="#E64C3C"/>
<path d="M42.3015 33.0042C42.4205 33.0042 42.517 32.9077 42.517 32.7886C42.517 32.6696 42.4205 32.5731 42.3015 32.5731C42.1824 32.5731 42.0859 32.6696 42.0859 32.7886C42.0859 32.9077 42.1824 33.0042 42.3015 33.0042Z" fill="#E64C3C"/>
<path d="M40.7929 32.3575C40.9119 32.3575 41.0084 32.2611 41.0084 32.142C41.0084 32.023 40.9119 31.9265 40.7929 31.9265C40.6739 31.9265 40.5774 32.023 40.5774 32.142C40.5774 32.2611 40.6739 32.3575 40.7929 32.3575Z" fill="#E64C3C"/>
<path d="M42.517 30.6334C42.6361 30.6334 42.7325 30.5369 42.7325 30.4179C42.7325 30.2989 42.6361 30.2024 42.517 30.2024C42.398 30.2024 42.3015 30.2989 42.3015 30.4179C42.3015 30.5369 42.398 30.6334 42.517 30.6334Z" fill="#E64C3C"/>
<path d="M41.3256 38.9567L41.2782 39.1894C41.0002 40.6038 39.7606 41.624 38.3191 41.6248H36.8105C35.3658 41.6282 34.1214 40.607 33.8428 39.1894L33.7954 38.9567H41.3256Z" fill="#805333"/>
<path d="M33.25 36.6678V37.6635C33.25 39.1312 35.1897 40.3316 37.5603 40.3316C39.931 40.3316 41.8707 39.142 41.8707 37.6743V36.6678H33.25Z" fill="#CB8252"/>
<path d="M36.5194 34.1593C34.6466 34.4373 33.25 35.4546 33.25 36.6679C33.25 38.1033 35.1897 39.2671 37.5603 39.2671C39.569 39.2671 41.2565 38.4395 41.7349 37.3274C42.2435 36.1356 41.3039 35.0946 40.0625 34.5645L36.5194 34.1593Z" fill="#CF976A"/>
<path d="M40.9007 37.0988C40.5171 37.8423 39.1766 38.3919 37.5602 38.3919C35.9438 38.3919 34.6033 37.8423 34.2197 37.0988C34.1945 37.0487 34.1729 36.9968 34.155 36.9436C34.7542 36.5686 35.683 35.866 35.8361 35.1764C36.0516 34.2152 37.7455 33.1139 38.6378 33.2367C39.6809 33.3725 40.2283 34.9307 40.7736 36.0514C40.8059 36.1182 40.9632 36.4372 40.9891 36.4522C41.0415 36.6712 41.0099 36.9019 40.9007 37.0988Z" fill="#F0C419"/>
<path d="M35.8361 35.1764C35.6809 35.866 34.7585 36.5708 34.1551 36.9436C33.8814 36.0579 34.9309 35.435 35.8361 35.1764Z" fill="#805333"/>
<path d="M37.3449 35.3746C37.4639 35.3746 37.5604 35.2781 37.5604 35.1591C37.5604 35.0401 37.4639 34.9436 37.3449 34.9436C37.2259 34.9436 37.1294 35.0401 37.1294 35.1591C37.1294 35.2781 37.2259 35.3746 37.3449 35.3746Z" fill="#F29C1F"/>
<path d="M39.0688 36.4523C39.1878 36.4523 39.2843 36.3558 39.2843 36.2368C39.2843 36.1177 39.1878 36.0212 39.0688 36.0212C38.9498 36.0212 38.8533 36.1177 38.8533 36.2368C38.8533 36.3558 38.9498 36.4523 39.0688 36.4523Z" fill="#F29C1F"/>
<path d="M37.7758 37.5299C37.8948 37.5299 37.9913 37.4334 37.9913 37.3144C37.9913 37.1954 37.8948 37.0989 37.7758 37.0989C37.6568 37.0989 37.5603 37.1954 37.5603 37.3144C37.5603 37.4334 37.6568 37.5299 37.7758 37.5299Z" fill="#F29C1F"/>
<path d="M36.0517 37.3143C36.1707 37.3143 36.2672 37.2178 36.2672 37.0988C36.2672 36.9798 36.1707 36.8833 36.0517 36.8833C35.9327 36.8833 35.8362 36.9798 35.8362 37.0988C35.8362 37.2178 35.9327 37.3143 36.0517 37.3143Z" fill="#F29C1F"/>
<path d="M38.6381 34.7282C38.7572 34.7282 38.8536 34.6317 38.8536 34.5126C38.8536 34.3936 38.7572 34.2971 38.6381 34.2971C38.5191 34.2971 38.4226 34.3936 38.4226 34.5126C38.4226 34.6317 38.5191 34.7282 38.6381 34.7282Z" fill="#F29C1F"/>
</g>
<path d="M56.5964 30.9991H63.8459V72.2496H56.5964V30.9991Z" fill="#FFC65C"/>
<path d="M63.8454 30.9993H56.5964V23.7498L63.8454 30.9993Z" fill="#FFD89E"/>
<path d="M52.7003 48.4197H33.8738C33.6417 48.4197 33.4192 48.3275 33.2551 48.1634C33.091 47.9993 32.9988 47.7767 32.9988 47.5447C32.9988 47.3126 33.091 47.09 33.2551 46.926C33.4192 46.7619 33.6417 46.6697 33.8738 46.6697H52.7003C52.9323 46.6697 53.1549 46.7619 53.319 46.926C53.4831 47.09 53.5753 47.3126 53.5753 47.5447C53.5753 47.7767 53.4831 47.9993 53.319 48.1634C53.1549 48.3275 52.9323 48.4197 52.7003 48.4197Z" fill="#292929"/>
<path d="M42.8323 52.5413H33.8738C33.6417 52.5413 33.4192 52.4491 33.2551 52.285C33.091 52.1209 32.9988 51.8983 32.9988 51.6663C32.9988 51.4342 33.091 51.2116 33.2551 51.0475C33.4192 50.8834 33.6417 50.7913 33.8738 50.7913H42.8323C43.0644 50.7913 43.2869 50.8834 43.451 51.0475C43.6151 51.2116 43.7073 51.4342 43.7073 51.6663C43.7073 51.8983 43.6151 52.1209 43.451 52.285C43.2869 52.4491 43.0644 52.5413 42.8323 52.5413Z" fill="#292929"/>
<path d="M49.6113 56.6632H33.8738C33.6417 56.6632 33.4192 56.571 33.2551 56.4069C33.091 56.2428 32.9988 56.0203 32.9988 55.7882C32.9988 55.5561 33.091 55.3336 33.2551 55.1695C33.4192 55.0054 33.6417 54.9132 33.8738 54.9132H49.6113C49.8433 54.9132 50.0659 55.0054 50.23 55.1695C50.3941 55.3336 50.4863 55.5561 50.4863 55.7882C50.4863 56.0203 50.3941 56.2428 50.23 56.4069C50.0659 56.571 49.8433 56.6632 49.6113 56.6632Z" fill="#292929"/>
<path d="M42.8323 60.7848H33.8738C33.6417 60.7848 33.4192 60.6926 33.2551 60.5285C33.091 60.3644 32.9988 60.1419 32.9988 59.9098C32.9988 59.6777 33.091 59.4552 33.2551 59.2911C33.4192 59.127 33.6417 59.0348 33.8738 59.0348H42.8323C43.0644 59.0348 43.2869 59.127 43.451 59.2911C43.6151 59.4552 43.7073 59.6777 43.7073 59.9098C43.7073 60.1419 43.6151 60.3644 43.451 60.5285C43.2869 60.6926 43.0644 60.7848 42.8323 60.7848Z" fill="#292929"/>
<path d="M49.6113 64.9061H33.8738C33.6417 64.9061 33.4192 64.8139 33.2551 64.6498C33.091 64.4858 32.9988 64.2632 32.9988 64.0311C32.9988 63.7991 33.091 63.5765 33.2551 63.4124C33.4192 63.2483 33.6417 63.1561 33.8738 63.1561H49.6113C49.8433 63.1561 50.0659 63.2483 50.23 63.4124C50.3941 63.5765 50.4863 63.7991 50.4863 64.0311C50.4863 64.2632 50.3941 64.4858 50.23 64.6498C50.0659 64.8139 49.8433 64.9061 49.6113 64.9061Z" fill="#292929"/>
<path d="M42.8324 69.0286H33.9424C33.7103 69.0286 33.4878 68.9364 33.3237 68.7723C33.1596 68.6082 33.0674 68.3856 33.0674 68.1536C33.0674 67.9215 33.1596 67.6989 33.3237 67.5348C33.4878 67.3708 33.7103 67.2786 33.9424 67.2786H42.8324C43.0645 67.2786 43.287 67.3708 43.4511 67.5348C43.6152 67.6989 43.7074 67.9215 43.7074 68.1536C43.7074 68.3856 43.6152 68.6082 43.4511 68.7723C43.287 68.9364 43.0645 69.0286 42.8324 69.0286Z" fill="#292929"/>
<path d="M62.5501 63.6267C62.3244 63.6267 62.1075 63.5395 61.9446 63.3832L58.3251 59.9112C58.2387 59.8326 58.169 59.7373 58.1199 59.6312C58.0709 59.5251 58.0437 59.4103 58.0398 59.2935C58.0359 59.1767 58.0554 59.0603 58.0973 58.9512C58.1391 58.842 58.2024 58.7424 58.2833 58.6581C58.3643 58.5739 58.4613 58.5067 58.5687 58.4605C58.6761 58.4143 58.7916 58.3901 58.9085 58.3894C59.0253 58.3886 59.1412 58.4112 59.2491 58.4559C59.3571 58.5007 59.455 58.5666 59.5371 58.6497L62.4771 61.4702L67.6236 55.2498C67.6969 55.1611 67.7868 55.0878 67.8884 55.0339C67.99 54.98 68.1012 54.9467 68.2157 54.9358C68.3302 54.9249 68.4457 54.9367 68.5556 54.9704C68.6655 55.0042 68.7677 55.0593 68.8564 55.1325C68.945 55.2057 69.0183 55.2957 69.0722 55.3973C69.1261 55.4989 69.1594 55.6101 69.1703 55.7246C69.1812 55.8391 69.1694 55.9546 69.1357 56.0645C69.1019 56.1744 69.0469 56.2766 68.9736 56.3653L63.2251 63.3097C63.1483 63.4023 63.0533 63.4781 62.9459 63.5324C62.8386 63.5867 62.7212 63.6183 62.6011 63.6252L62.5501 63.6267Z" fill="#2AAB56"/>
<path d="M75.3617 59.0798C75.3617 56.6815 74.6133 54.343 73.2208 52.3905C71.8283 50.4379 69.8612 48.9685 67.5937 48.1873C67.3742 48.1117 67.1337 48.1265 66.925 48.2284C66.7164 48.3302 66.5568 48.5107 66.4812 48.7303C66.4057 48.9498 66.4205 49.1903 66.5223 49.399C66.6242 49.6076 66.8047 49.7672 67.0242 49.8428C69.0618 50.5435 70.8104 51.8987 71.9972 53.6972C73.184 55.4956 73.7425 57.6362 73.5856 59.7852C73.4286 61.9342 72.565 63.9709 71.1295 65.5778C69.6939 67.1847 67.767 68.2715 65.6492 68.6688L66.4707 67.4943C66.6019 67.3041 66.6525 67.0697 66.6115 66.8423C66.5705 66.6149 66.4413 66.4129 66.2519 66.2805C66.0626 66.1481 65.8285 66.0959 65.6009 66.1354C65.3732 66.1749 65.1704 66.3028 65.0367 66.4913L63.1287 69.2188C62.9961 69.4084 62.9439 69.6429 62.9838 69.8709C63.0236 70.0989 63.1521 70.3018 63.3412 70.4353L66.0002 72.3118C66.0941 72.3781 66.2001 72.4252 66.3122 72.4505C66.4243 72.4758 66.5402 72.4788 66.6535 72.4593C66.7667 72.4398 66.875 72.3982 66.9722 72.3369C67.0693 72.2755 67.1534 72.1956 67.2197 72.1018C67.286 72.0079 67.3332 71.9019 67.3585 71.7898C67.3838 71.6777 67.3868 71.5618 67.3673 71.4485C67.3478 71.3353 67.3062 71.227 67.2448 71.1298C67.1835 71.0327 67.1036 70.9486 67.0097 70.8823L66.2352 70.3353C68.8174 69.7919 71.1339 68.3766 72.7958 66.3271C74.4577 64.2775 75.3638 61.7185 75.3617 59.0798Z" fill="#3DCD3A"/>
<path d="M64.3499 47.7238L61.6919 45.8498C61.598 45.7835 61.492 45.7364 61.38 45.7111C61.2679 45.6858 61.1519 45.6828 61.0387 45.7023C60.9254 45.7218 60.8171 45.7634 60.72 45.8247C60.6228 45.8861 60.5387 45.966 60.4724 46.0598C60.4061 46.1537 60.359 46.2597 60.3337 46.3718C60.3083 46.4839 60.3053 46.5998 60.3248 46.7131C60.3443 46.8263 60.386 46.9346 60.4473 47.0318C60.5087 47.1289 60.5885 47.213 60.6824 47.2793L61.4589 47.8293C58.9985 48.3493 56.776 49.6607 55.1313 51.5631C53.4867 53.4656 52.5103 55.8543 52.3516 58.364C52.1928 60.8738 52.8604 63.3665 54.2522 65.461C55.6441 67.5555 57.6836 69.1365 60.0589 69.9623C60.1689 70.0076 60.287 70.03 60.406 70.0281C60.525 70.0263 60.6423 70.0001 60.7508 69.9513C60.8593 69.9026 60.9568 69.8322 61.0372 69.7445C61.1176 69.6567 61.1792 69.5536 61.2184 69.4412C61.2575 69.3288 61.2734 69.2097 61.2649 69.091C61.2564 68.9723 61.2239 68.8566 61.1691 68.7509C61.1144 68.6453 61.0388 68.5519 60.9467 68.4765C60.8547 68.4011 60.7483 68.3452 60.6339 68.3123C58.6014 67.6053 56.8595 66.2465 55.6789 64.4473C54.4984 62.6481 53.9453 60.5093 54.1058 58.3633C54.2662 56.2174 55.1312 54.1846 56.5662 52.5809C58.0012 50.9773 59.9259 49.8927 62.0409 49.4958L61.2204 50.6648C61.1536 50.759 61.1061 50.8653 61.0807 50.9779C61.0552 51.0904 61.0522 51.2069 61.0719 51.3206C61.0917 51.4343 61.1337 51.543 61.1956 51.6404C61.2575 51.7378 61.338 51.822 61.4326 51.8881C61.5271 51.9542 61.6338 52.001 61.7465 52.0258C61.8593 52.0505 61.9758 52.0527 62.0893 52.0322C62.2029 52.0117 62.3113 51.969 62.4083 51.9065C62.5052 51.8439 62.5889 51.7628 62.6544 51.6678L64.5624 48.9403C64.6951 48.7507 64.7472 48.5162 64.7074 48.2882C64.6676 48.0602 64.539 47.8573 64.3499 47.7238Z" fill="#25CC5D"/>
<defs>
<clipPath id="clip0">
<rect width="12.5" height="12.5" fill="white" transform="translate(33.25 29.1248)"/>
</clipPath>
</defs>
</svg>
