<svg width="96" height="96" viewBox="0 0 96 96" fill="none" xmlns="http://www.w3.org/2000/svg">
<circle cx="48" cy="48" r="48" fill="#FFEFC2"/>
<path d="M37 67H59V71H37V67Z" fill="#C4D4E0"/>
<path d="M50 66C50 64.8954 48 61 48 61C48 61 46 64.8954 46 66C46 66.5304 46.2107 67.0391 46.5858 67.4142C46.9609 67.7893 47.4696 68 48 68C48.5304 68 49.0391 67.7893 49.4142 67.4142C49.7893 67.0391 50 66.5304 50 66Z" fill="#E88604"/>
<path d="M43 66C43.0001 66.2707 42.9452 66.5386 42.8386 66.7875C42.7321 67.0364 42.5761 67.261 42.3801 67.4478C42.1842 67.6346 41.9523 67.7797 41.6987 67.8742C41.445 67.9687 41.1747 68.0108 40.9043 67.9978C39.8283 67.9477 39 67.0211 39 65.9439V62L39.1005 62.1005C39.9735 62.9459 40.9511 63.676 42.0096 64.273C42.3112 64.4492 42.5614 64.7014 42.7352 65.0044C42.9089 65.3074 43.0002 65.6507 43 66Z" fill="#E88604"/>
<path d="M33 66C32.2044 66 31.4413 66.3161 30.8787 66.8787C30.3161 67.4413 30 68.2044 30 69V71H26V69C26 67.1435 26.7375 65.363 28.0503 64.0503C29.363 62.7375 31.1435 62 33 62C33.5304 62 34.0391 62.2107 34.4142 62.5858C34.7893 62.9609 35 63.4696 35 64C35 64.5304 34.7893 65.0391 34.4142 65.4142C34.0391 65.7893 33.5304 66 33 66Z" fill="#2F4054"/>
<path d="M63 66C63.7956 66 64.5587 66.3161 65.1213 66.8787C65.6839 67.4413 66 68.2044 66 69V71H70V69C70 67.1435 69.2625 65.363 67.9497 64.0503C66.637 62.7375 64.8565 62 63 62C62.4696 62 61.9609 62.2107 61.5858 62.5858C61.2107 62.9609 61 63.4696 61 64C61 64.5304 61.2107 65.0391 61.5858 65.4142C61.9609 65.7893 62.4696 66 63 66Z" fill="#2F4054"/>
<path d="M23 70H73V72H23V70Z" fill="#262D43"/>
<path d="M41.5 68C42.3284 68 43 67.3284 43 66.5C43 65.6716 42.3284 65 41.5 65C40.6716 65 40 65.6716 40 66.5C40 67.3284 40.6716 68 41.5 68Z" fill="#EEBE33"/>
<path d="M53 66C52.9999 66.2707 53.0548 66.5386 53.1614 66.7875C53.2679 67.0364 53.4239 67.261 53.6199 67.4478C53.8158 67.6346 54.0477 67.7797 54.3013 67.8742C54.555 67.9687 54.8253 68.0108 55.0957 67.9978C56.1717 67.9477 57 67.0211 57 65.9439V62L56.8995 62.1005C56.0265 62.9459 55.0489 63.676 53.9904 64.273C53.6888 64.4492 53.4386 64.7014 53.2648 65.0044C53.0911 65.3074 52.9998 65.6507 53 66Z" fill="#E88604"/>
<path d="M54.5 68C55.3284 68 56 67.3284 56 66.5C56 65.6716 55.3284 65 54.5 65C53.6716 65 53 65.6716 53 66.5C53 67.3284 53.6716 68 54.5 68Z" fill="#EEBE33"/>
<path d="M48 68C48.8284 68 49.5 67.3284 49.5 66.5C49.5 65.6716 48.8284 65 48 65C47.1716 65 46.5 65.6716 46.5 66.5C46.5 67.3284 47.1716 68 48 68Z" fill="#EEBE33"/>
<path d="M61 44C62.0605 45.0611 62.6562 46.4998 62.6562 48C62.6562 49.5002 62.0605 50.9389 61 52H33.9988C33.2037 51.9999 32.4412 51.6841 31.8789 51.122C31.3166 50.5599 31.0004 49.7976 31 49.0025V48.9125C30.9997 48.53 31.0748 48.1513 31.221 47.7979C31.3672 47.4445 31.5816 47.1234 31.852 46.8529C32.1224 46.5824 32.4434 46.3678 32.7967 46.2215C33.1501 46.0751 33.5288 45.9999 33.9113 46H34.09C34.4742 45.9993 34.8545 45.9228 35.2091 45.7747C35.5636 45.6266 35.8854 45.4098 36.1559 45.137C36.4265 44.8641 36.6404 44.5405 36.7855 44.1847C36.9305 43.8289 37.0039 43.448 37.0013 43.0637V42.9225C37.0009 42.3361 36.8487 41.7598 36.5596 41.2496C36.2704 40.7395 35.8541 40.3128 35.3513 40.0112C34.8738 39.7238 34.3488 39.41 33.86 39.1162C33.2909 38.7739 32.8204 38.2897 32.4943 37.7111C32.1683 37.1325 31.998 36.4791 32 35.815V35.7437C31.9999 35.252 32.0968 34.765 32.285 34.3107C32.4732 33.8564 32.7491 33.4436 33.0968 33.096C33.4446 32.7483 33.8575 32.4726 34.3119 32.2845C34.7663 32.0965 35.2532 31.9998 35.745 32H36C35.7874 32.3146 35.6734 32.6853 35.6725 33.065C35.672 33.319 35.7216 33.5707 35.8185 33.8055C35.9154 34.0403 36.0577 34.2537 36.2372 34.4335C36.4168 34.6132 36.63 34.7558 36.8647 34.853C37.0994 34.9502 37.351 35.0002 37.605 35C38.4427 34.9986 39.2691 35.1925 40.0188 35.5662C40.0759 34.8889 40.272 34.2306 40.595 33.6325C41.0229 32.8367 41.6585 32.1717 42.4341 31.7082C43.2097 31.2446 44.0964 30.9999 45 31C45.5304 31 46.0391 30.7893 46.4142 30.4142C46.7893 30.0391 47 29.5304 47 29C47 28.4696 46.7893 27.9609 46.4142 27.5858C46.0391 27.2107 45.5304 27 45 27C43.9391 27 42.9217 26.5786 42.1716 25.8284C41.4214 25.0783 41 24.0609 41 23C41 21.9391 41.4214 20.9217 42.1716 20.1716C42.9217 19.4214 43.9391 19 45 19H47C46.4696 19 45.9609 19.2107 45.5858 19.5858C45.2107 19.9609 45 20.4696 45 21C45 21.5304 45.2107 22.0391 45.5858 22.4142C45.9609 22.7893 46.4696 23 47 23C48.3259 23.0005 49.5974 23.5274 50.535 24.465C51.4726 25.4026 51.9995 26.6741 52 28V31.4175C52.8919 31.8063 53.6509 32.447 54.1839 33.261C54.7168 34.0751 55.0004 35.027 55 36L57.25 33.75C57.714 33.2858 57.9747 32.6563 57.9747 32C57.9747 31.3437 57.714 30.7142 57.25 30.25C57.0202 30.0202 56.8378 29.7474 56.7134 29.4471C56.589 29.1468 56.525 28.825 56.525 28.5C56.525 28.175 56.589 27.8532 56.7134 27.5529C56.8378 27.2526 57.0202 26.9798 57.25 26.75L60 24C59.7373 24.2626 59.5288 24.5744 59.3866 24.9175C59.2444 25.2607 59.1712 25.6285 59.1712 26C59.1712 26.3715 59.2444 26.7393 59.3866 27.0825C59.5288 27.4256 59.7373 27.7374 60 28L61 29C62.0607 30.061 62.6566 31.4998 62.6566 33C62.6566 34.5002 62.0607 35.939 61 37C60.5403 37.4596 60.1756 38.0052 59.9268 38.6058C59.6781 39.2063 59.55 39.85 59.55 40.5C59.55 41.15 59.6781 41.7937 59.9268 42.3942C60.1756 42.9948 60.5403 43.5404 61 44Z" fill="#E88604"/>
<path d="M37.6398 33L37.6436 33.0175C37.6308 33.0087 37.6163 33.0028 37.6011 33H37.6398Z" fill="black"/>
<path d="M27 52H69V56C69 57.5913 68.3679 59.1174 67.2426 60.2426C66.1174 61.3679 64.5913 62 63 62H33C31.4087 62 29.8826 61.3679 28.7574 60.2426C27.6321 59.1174 27 57.5913 27 56V52Z" fill="#E44B4D"/>
<path d="M65 60H66C67.0609 60 68.0783 59.5786 68.8284 58.8284C69.5786 58.0783 70 57.0609 70 56H80C80.5304 56 81.0391 55.7893 81.4142 55.4142C81.7893 55.0391 82 54.5304 82 54C82 53.4696 81.7893 52.9609 81.4142 52.5858C81.0391 52.2107 80.5304 52 80 52H65V60Z" fill="#AD7D4D"/>
<path d="M52 28V52H40V36C40 35.8513 40.0062 35.705 40.0187 35.56C40.048 35.2197 40.1125 34.8833 40.2113 34.5562C40.522 33.528 41.1554 32.627 42.0178 31.9866C42.8802 31.3461 43.9258 31.0002 45 31C45.5304 31 46.0391 30.7893 46.4142 30.4142C46.7893 30.0391 47 29.5304 47 29C47 28.4696 46.7893 27.9609 46.4142 27.5858C46.0391 27.2107 45.5304 27 45 27C43.9391 27 42.9217 26.5786 42.1716 25.8284C41.4214 25.0783 41 24.0609 41 23C41 21.9391 41.4214 20.9217 42.1716 20.1716C42.9217 19.4214 43.9391 19 45 19H47C46.4696 19 45.9609 19.2107 45.5858 19.5858C45.2107 19.9609 45 20.4696 45 21C45 21.5304 45.2107 22.0391 45.5858 22.4142C45.9609 22.7893 46.4696 23 47 23C48.3259 23.0005 49.5974 23.5274 50.535 24.465C51.4726 25.4026 51.9995 26.6741 52 28Z" fill="#EEBE33"/>
<path d="M43.5099 42.0001C43.4429 42.0001 43.3766 41.987 43.3147 41.9613C43.2529 41.9357 43.1967 41.8982 43.1493 41.8508C43.102 41.8035 43.0644 41.7473 43.0388 41.6854C43.0132 41.6235 43 41.5572 43 41.4903V40.0001L40 36.0001C40 35.8514 40.0062 35.7052 40.0187 35.5601C40.048 35.2198 40.1125 34.8834 40.2113 34.5564C41.3395 35.0597 42.2986 35.878 42.9731 36.9131C43.6476 37.9481 44.009 39.1559 44.0138 40.3914L44.0197 41.4875C44.0201 41.5547 44.0072 41.6213 43.9817 41.6835C43.9562 41.7457 43.9187 41.8022 43.8714 41.8498C43.824 41.8975 43.7677 41.9353 43.7056 41.9611C43.6436 41.9869 43.577 42.0001 43.5099 42.0001Z" fill="#E88604"/>
<path d="M43.0225 52.0001L43.0135 40.3945C43.0099 38.9626 42.4385 37.5905 41.4247 36.5793C40.4109 35.568 39.0375 35.0001 37.6055 35.0001H37.6055C37.2562 35.0001 36.9135 34.9053 36.6139 34.7258C36.3143 34.5463 36.069 34.2889 35.9042 33.981C35.7394 33.673 35.6613 33.3261 35.6781 32.9773C35.695 32.6284 35.8062 32.2907 36 32.0001L35.7445 32C35.2528 31.9999 34.7659 32.0967 34.3116 32.2848C33.8573 32.4728 33.4445 32.7486 33.0967 33.0963C32.749 33.4439 32.4732 33.8567 32.285 34.311C32.0968 34.7652 31.9999 35.2521 32 35.7438V35.8145C31.9977 36.4788 32.1679 37.1322 32.4939 37.711C32.82 38.2897 33.2906 38.7739 33.8599 39.1162C34.3493 39.4097 34.8738 39.7244 35.3513 40.0108C35.8543 40.3126 36.2706 40.7394 36.5597 41.2497C36.8489 41.7601 37.001 42.3366 37.0012 42.9232L37.0013 43.064C37.0039 43.4482 36.9306 43.8292 36.7855 44.185C36.6404 44.5407 36.4265 44.8644 36.156 45.1372C35.8854 45.41 35.5637 45.6267 35.2091 45.7748C34.8546 45.9229 34.4743 45.9995 34.0901 46.0002H33.9108C33.5284 46.0002 33.1497 46.0755 32.7965 46.2219C32.4432 46.3682 32.1222 46.5827 31.8519 46.8532C31.5815 47.1236 31.3671 47.4446 31.2209 47.798C31.0746 48.1513 30.9994 48.5299 30.9995 48.9123L30.9995 49.0023C31 49.7975 31.3162 50.5601 31.8787 51.1222C32.4411 51.6844 33.2038 52.0001 33.9991 52.0001H43.0225Z" fill="#EEBE33"/>
<path d="M52 30.3425V39H46V39.5C46 39.6326 45.9473 39.7598 45.8535 39.8536C45.7597 39.9473 45.6326 40 45.5 40C45.3674 40 45.2402 39.9473 45.1464 39.8536C45.0526 39.7598 45 39.6326 45 39.5V39.095C44.9881 37.7679 45.4918 36.488 46.405 35.525C46.865 35.0465 47.4162 34.665 48.0261 34.4031C48.636 34.1412 49.2923 34.0042 49.956 34.0002C50.1757 34.0041 50.3914 33.941 50.5743 33.8193C50.7486 33.6973 50.8794 33.5228 50.9478 33.3214C51.0161 33.1199 51.0184 32.9019 50.9544 32.699C50.8903 32.4961 50.7633 32.3189 50.5916 32.1932C50.42 32.0675 50.2127 31.9998 50 32C49.683 31.9999 49.3691 31.9375 49.0762 31.8163C48.7835 31.694 48.5173 31.5162 48.2925 31.2925L48 31L48.2925 30.7075C48.5166 30.4832 48.7828 30.3052 49.0758 30.1838C49.3688 30.0624 49.6828 30 50 30C50.6812 29.9996 51.3576 30.1155 52 30.3425Z" fill="#E88604"/>
<path d="M55 36V52H46V39C45.9999 38.4747 46.1032 37.9545 46.3042 37.4691C46.5052 36.9837 46.7998 36.5427 47.1713 36.1713C47.5427 35.7998 47.9837 35.5052 48.4691 35.3042C48.9545 35.1032 49.4747 34.9999 50 35C50.5304 35 51.0391 34.7893 51.4142 34.4142C51.7893 34.0391 52 33.5304 52 33C52 32.4696 51.7893 31.9609 51.4142 31.5858C51.0391 31.2107 50.5304 31 50 31C50.6569 30.9991 51.3075 31.1277 51.9145 31.3787C52.5216 31.6296 53.0732 31.9979 53.5376 32.4624C54.0021 32.9268 54.3704 33.4784 54.6213 34.0855C54.8723 34.6925 55.0009 35.3431 55 36Z" fill="#EEBE33"/>
<path d="M55 36.0001C55 36.0001 53.4572 43.5778 53.5984 44.0077C53.8426 44.5403 54.1562 45.0383 54.5311 45.4885C54.5809 45.549 54.6158 45.6204 54.6328 45.6968C54.6498 45.7733 54.6485 45.8527 54.6289 45.9286C54.6094 46.0045 54.5723 46.0747 54.5205 46.1335C54.4687 46.1923 54.4037 46.238 54.3309 46.2669C54.2324 46.3061 54.1239 46.313 54.0213 46.2865C53.9186 46.26 53.827 46.2016 53.7597 46.1197C52.4916 44.5696 51.844 42.6039 51.9424 40.6036C52.0408 38.6033 52.8783 36.7107 54.2925 35.2926L54.8412 34.7439C54.947 35.1543 55.0004 35.5764 55 36.0001Z" fill="#E88604"/>
<path d="M61 52C61.5253 51.4747 61.942 50.8511 62.2263 50.1648C62.5106 49.4785 62.6569 48.7429 62.6569 48C62.6569 47.2571 62.5106 46.5215 62.2263 45.8352C61.942 45.1489 61.5253 44.5253 61 44C60.5404 43.5404 60.1758 42.9947 59.9271 42.3942C59.6783 41.7937 59.5503 41.15 59.5503 40.5C59.5503 39.85 59.6783 39.2063 59.9271 38.6058C60.1758 38.0053 60.5404 37.4596 61 37C61.5253 36.4747 61.942 35.8511 62.2263 35.1648C62.5106 34.4785 62.6569 33.7429 62.6569 33C62.6569 32.2571 62.5106 31.5215 62.2263 30.8352C61.942 30.1489 61.5253 29.5253 61 29L60 28C59.7374 27.7374 59.529 27.4256 59.3869 27.0824C59.2448 26.7392 59.1716 26.3714 59.1716 26C59.1716 25.6286 59.2448 25.2608 59.3869 24.9176C59.529 24.5744 59.7374 24.2626 60 24L57.25 26.75C56.7859 27.2141 56.5252 27.8436 56.5252 28.5C56.5252 29.1564 56.7859 29.7859 57.25 30.25C57.7142 30.7141 57.9749 31.3436 57.9749 32C57.9749 32.6564 57.7142 33.2859 57.25 33.75L55 36C54.3434 36.6566 53.8226 37.4361 53.4672 38.294C53.1119 39.1519 52.929 40.0714 52.929 41C52.929 41.9286 53.1119 42.8481 53.4672 43.706C53.8226 44.5639 54.3434 45.3434 55 46V52H61Z" fill="#EEBE33"/>
<path d="M49.2925 44.8788L46.7937 42.38C46.0919 41.6776 45.1633 41.2475 44.1737 41.1663L44.1812 41.2825C44.24 42.2002 44.6357 43.0638 45.2925 43.7075C45.6352 44.0503 45.8278 44.5152 45.8278 45C45.8278 45.4848 45.6352 45.9497 45.2925 46.2925C44.5756 47.0112 44.1731 47.9849 44.1731 49C44.1731 50.0151 44.5756 50.9888 45.2925 51.7075L45.585 52H51V49C51.002 48.2343 50.8521 47.4758 50.559 46.7684C50.2659 46.0609 49.8354 45.4187 49.2925 44.8788ZM49 51H47.4137L46.7075 50.2925C46.3647 49.9497 46.1722 49.4848 46.1722 49C46.1722 48.5152 46.3647 48.0503 46.7075 47.7075C47.1593 47.2557 47.4906 46.6979 47.6712 46.085L47.8787 46.2925C48.2352 46.6474 48.5178 47.0694 48.7102 47.5341C48.9027 47.9988 49.0011 48.497 49 49V51Z" fill="#E88604"/>
<path d="M47.0001 52L46.0001 51C45.7374 50.7374 45.5291 50.4256 45.3869 50.0824C45.2448 49.7392 45.1716 49.3714 45.1716 49C45.1716 48.6286 45.2448 48.2608 45.3869 47.9176C45.5291 47.5744 45.7374 47.2626 46.0001 47C46.2627 46.7374 46.471 46.4256 46.6132 46.0824C46.7553 45.7392 46.8285 45.3714 46.8285 45C46.8285 44.6286 46.7553 44.2608 46.6132 43.9176C46.471 43.5744 46.2627 43.2626 46.0001 43L48.5858 45.5858C49.0342 46.0341 49.3899 46.5664 49.6325 47.1522C49.8752 47.7381 50.0001 48.3659 50.0001 49V52H47.0001Z" fill="#EEBE33"/>
</svg>
