<svg width="96" height="96" viewBox="0 0 96 96" fill="none" xmlns="http://www.w3.org/2000/svg">
<circle cx="47.9999" cy="48" r="48" fill="white"/>
<path d="M36.9999 67H58.9999V71H36.9999V67Z" fill="#C4D4E0"/>
<path d="M49.9999 66C49.9999 64.8954 47.9999 61 47.9999 61C47.9999 61 45.9999 64.8954 45.9999 66C45.9999 66.5304 46.2106 67.0391 46.5857 67.4142C46.9607 67.7893 47.4694 68 47.9999 68C48.5303 68 49.039 67.7893 49.4141 67.4142C49.7892 67.0391 49.9999 66.5304 49.9999 66Z" fill="#E88604"/>
<path d="M42.9999 66C42.9999 66.2707 42.945 66.5386 42.8385 66.7875C42.7319 67.0364 42.576 67.261 42.38 67.4478C42.1841 67.6346 41.9522 67.7797 41.6985 67.8742C41.4449 67.9687 41.1746 68.0108 40.9042 67.9978C39.8281 67.9477 38.9999 67.0211 38.9999 65.9439V62L39.1004 62.1005C39.9734 62.9459 40.951 63.676 42.0095 64.273C42.3111 64.4492 42.5613 64.7014 42.735 65.0044C42.9088 65.3074 43.0001 65.6507 42.9999 66Z" fill="#E88604"/>
<path d="M32.9999 66C32.2042 66 31.4412 66.3161 30.8786 66.8787C30.3159 67.4413 29.9999 68.2044 29.9999 69V71H25.9999V69C25.9999 67.1435 26.7374 65.363 28.0501 64.0503C29.3629 62.7375 31.1434 62 32.9999 62C33.5303 62 34.039 62.2107 34.4141 62.5858C34.7892 62.9609 34.9999 63.4696 34.9999 64C34.9999 64.5304 34.7892 65.0391 34.4141 65.4142C34.039 65.7893 33.5303 66 32.9999 66Z" fill="#2F4054"/>
<path d="M62.9999 66C63.7955 66 64.5586 66.3161 65.1212 66.8787C65.6838 67.4413 65.9999 68.2044 65.9999 69V71H69.9999V69C69.9999 67.1435 69.2624 65.363 67.9496 64.0503C66.6369 62.7375 64.8564 62 62.9999 62C62.4694 62 61.9607 62.2107 61.5857 62.5858C61.2106 62.9609 60.9999 63.4696 60.9999 64C60.9999 64.5304 61.2106 65.0391 61.5857 65.4142C61.9607 65.7893 62.4694 66 62.9999 66Z" fill="#2F4054"/>
<path d="M22.9999 70H72.9999V72H22.9999V70Z" fill="#262D43"/>
<path d="M41.4999 68C42.3283 68 42.9999 67.3284 42.9999 66.5C42.9999 65.6716 42.3283 65 41.4999 65C40.6715 65 39.9999 65.6716 39.9999 66.5C39.9999 67.3284 40.6715 68 41.4999 68Z" fill="#EEBE33"/>
<path d="M52.9999 66C52.9998 66.2707 53.0547 66.5386 53.1613 66.7875C53.2678 67.0364 53.4238 67.261 53.6197 67.4478C53.8157 67.6346 54.0475 67.7797 54.3012 67.8742C54.5549 67.9687 54.8251 68.0108 55.0955 67.9978C56.1716 67.9477 56.9999 67.0211 56.9999 65.9439V62L56.8993 62.1005C56.0264 62.9459 55.0487 63.676 53.9902 64.273C53.6886 64.4492 53.4385 64.7014 53.2647 65.0044C53.091 65.3074 52.9996 65.6507 52.9999 66Z" fill="#E88604"/>
<path d="M54.4999 68C55.3283 68 55.9999 67.3284 55.9999 66.5C55.9999 65.6716 55.3283 65 54.4999 65C53.6715 65 52.9999 65.6716 52.9999 66.5C52.9999 67.3284 53.6715 68 54.4999 68Z" fill="#EEBE33"/>
<path d="M47.9999 68C48.8283 68 49.4999 67.3284 49.4999 66.5C49.4999 65.6716 48.8283 65 47.9999 65C47.1715 65 46.4999 65.6716 46.4999 66.5C46.4999 67.3284 47.1715 68 47.9999 68Z" fill="#EEBE33"/>
<path d="M60.9999 44C62.0604 45.0611 62.6561 46.4998 62.6561 48C62.6561 49.5002 62.0604 50.9389 60.9999 52H33.9986C33.2036 51.9999 32.4411 51.6841 31.8788 51.122C31.3164 50.5599 31.0003 49.7976 30.9999 49.0025V48.9125C30.9996 48.53 31.0747 48.1513 31.2209 47.7979C31.3671 47.4445 31.5815 47.1234 31.8519 46.8529C32.1222 46.5824 32.4433 46.3678 32.7966 46.2215C33.15 46.0751 33.5287 45.9999 33.9111 46H34.0899C34.4741 45.9993 34.8544 45.9228 35.209 45.7747C35.5635 45.6266 35.8853 45.4098 36.1558 45.137C36.4264 44.8641 36.6403 44.5405 36.7854 44.1847C36.9304 43.8289 37.0038 43.448 37.0011 43.0637V42.9225C37.0007 42.3361 36.8486 41.7598 36.5594 41.2496C36.2703 40.7395 35.854 40.3128 35.3511 40.0112C34.8736 39.7238 34.3486 39.41 33.8599 39.1162C33.2908 38.7739 32.8202 38.2897 32.4942 37.7111C32.1682 37.1325 31.9979 36.4791 31.9999 35.815V35.7437C31.9998 35.252 32.0967 34.765 32.2849 34.3107C32.4731 33.8564 32.7489 33.4436 33.0967 33.096C33.4445 32.7483 33.8574 32.4726 34.3118 32.2845C34.7661 32.0965 35.2531 31.9998 35.7449 32H35.9999C35.7873 32.3146 35.6733 32.6853 35.6724 33.065C35.6719 33.319 35.7215 33.5707 35.8184 33.8055C35.9153 34.0403 36.0576 34.2537 36.2371 34.4335C36.4166 34.6132 36.6299 34.7558 36.8646 34.853C37.0993 34.9502 37.3508 35.0002 37.6049 35C38.4425 34.9986 39.269 35.1925 40.0186 35.5662C40.0757 34.8889 40.2719 34.2306 40.5949 33.6325C41.0228 32.8367 41.6584 32.1717 42.434 31.7082C43.2096 31.2446 44.0963 30.9999 44.9999 31C45.5303 31 46.039 30.7893 46.4141 30.4142C46.7892 30.0391 46.9999 29.5304 46.9999 29C46.9999 28.4696 46.7892 27.9609 46.4141 27.5858C46.039 27.2107 45.5303 27 44.9999 27C43.939 27 42.9216 26.5786 42.1715 25.8284C41.4213 25.0783 40.9999 24.0609 40.9999 23C40.9999 21.9391 41.4213 20.9217 42.1715 20.1716C42.9216 19.4214 43.939 19 44.9999 19H46.9999C46.4694 19 45.9607 19.2107 45.5857 19.5858C45.2106 19.9609 44.9999 20.4696 44.9999 21C44.9999 21.5304 45.2106 22.0391 45.5857 22.4142C45.9607 22.7893 46.4694 23 46.9999 23C48.3258 23.0005 49.5973 23.5274 50.5349 24.465C51.4725 25.4026 51.9994 26.6741 51.9999 28V31.4175C52.8918 31.8063 53.6508 32.447 54.1837 33.261C54.7167 34.0751 55.0003 35.027 54.9999 36L57.2499 33.75C57.7139 33.2858 57.9746 32.6563 57.9746 32C57.9746 31.3437 57.7139 30.7142 57.2499 30.25C57.02 30.0202 56.8377 29.7474 56.7133 29.4471C56.5889 29.1468 56.5249 28.825 56.5249 28.5C56.5249 28.175 56.5889 27.8532 56.7133 27.5529C56.8377 27.2526 57.02 26.9798 57.2499 26.75L59.9999 24C59.7371 24.2626 59.5287 24.5744 59.3865 24.9175C59.2443 25.2607 59.1711 25.6285 59.1711 26C59.1711 26.3715 59.2443 26.7393 59.3865 27.0825C59.5287 27.4256 59.7371 27.7374 59.9999 28L60.9999 29C62.0606 30.061 62.6564 31.4998 62.6564 33C62.6564 34.5002 62.0606 35.939 60.9999 37C60.5402 37.4596 60.1755 38.0052 59.9267 38.6058C59.6779 39.2063 59.5499 39.85 59.5499 40.5C59.5499 41.15 59.6779 41.7937 59.9267 42.3942C60.1755 42.9948 60.5402 43.5404 60.9999 44Z" fill="#E88604"/>
<path d="M37.6398 33L37.6436 33.0175C37.6308 33.0087 37.6163 33.0028 37.6011 33H37.6398Z" fill="black"/>
<path d="M26.9999 52H68.9999V56C68.9999 57.5913 68.3677 59.1174 67.2425 60.2426C66.1173 61.3679 64.5912 62 62.9999 62H32.9999C31.4086 62 29.8825 61.3679 28.7572 60.2426C27.632 59.1174 26.9999 57.5913 26.9999 56V52Z" fill="#E44B4D"/>
<path d="M64.9999 60H65.9999C67.0607 60 68.0782 59.5786 68.8283 58.8284C69.5784 58.0783 69.9999 57.0609 69.9999 56H79.9999C80.5303 56 81.039 55.7893 81.4141 55.4142C81.7892 55.0391 81.9999 54.5304 81.9999 54C81.9999 53.4696 81.7892 52.9609 81.4141 52.5858C81.039 52.2107 80.5303 52 79.9999 52H64.9999V60Z" fill="#AD7D4D"/>
<path d="M51.9999 28V52H39.9999V36C39.9999 35.8513 40.0061 35.705 40.0186 35.56C40.0479 35.2197 40.1124 34.8833 40.2111 34.5562C40.5219 33.528 41.1553 32.627 42.0177 31.9866C42.8801 31.3461 43.9257 31.0002 44.9999 31C45.5303 31 46.039 30.7893 46.4141 30.4142C46.7892 30.0391 46.9999 29.5304 46.9999 29C46.9999 28.4696 46.7892 27.9609 46.4141 27.5858C46.039 27.2107 45.5303 27 44.9999 27C43.939 27 42.9216 26.5786 42.1715 25.8284C41.4213 25.0783 40.9999 24.0609 40.9999 23C40.9999 21.9391 41.4213 20.9217 42.1715 20.1716C42.9216 19.4214 43.939 19 44.9999 19H46.9999C46.4694 19 45.9607 19.2107 45.5857 19.5858C45.2106 19.9609 44.9999 20.4696 44.9999 21C44.9999 21.5304 45.2106 22.0391 45.5857 22.4142C45.9607 22.7893 46.4694 23 46.9999 23C48.3258 23.0005 49.5973 23.5274 50.5349 24.465C51.4725 25.4026 51.9994 26.6741 51.9999 28Z" fill="#EEBE33"/>
<path d="M43.5097 42.0001C43.4428 42.0001 43.3765 41.987 43.3146 41.9613C43.2528 41.9357 43.1966 41.8982 43.1492 41.8508C43.1019 41.8035 43.0643 41.7473 43.0387 41.6854C43.0131 41.6235 42.9999 41.5572 42.9999 41.4903V40.0001L39.9999 36.0001C39.9999 35.8514 40.0061 35.7052 40.0186 35.5601C40.0479 35.2198 40.1124 34.8834 40.2111 34.5564C41.3394 35.0597 42.2984 35.878 42.973 36.9131C43.6475 37.9481 44.0088 39.1559 44.0136 40.3914L44.0196 41.4875C44.02 41.5547 44.007 41.6213 43.9816 41.6835C43.9561 41.7457 43.9186 41.8022 43.8712 41.8498C43.8239 41.8975 43.7675 41.9353 43.7055 41.9611C43.6435 41.9869 43.5769 42.0001 43.5097 42.0001Z" fill="#E88604"/>
<path d="M43.0225 52.0001L43.0135 40.3945C43.0099 38.9626 42.4385 37.5905 41.4247 36.5793C40.4109 35.568 39.0375 35.0001 37.6055 35.0001H37.6055C37.2562 35.0001 36.9135 34.9053 36.6139 34.7258C36.3143 34.5463 36.069 34.2889 35.9042 33.981C35.7394 33.673 35.6613 33.3261 35.6781 32.9773C35.695 32.6284 35.8062 32.2907 36 32.0001L35.7445 32C35.2528 31.9999 34.7659 32.0967 34.3116 32.2848C33.8573 32.4728 33.4445 32.7486 33.0967 33.0963C32.749 33.4439 32.4732 33.8567 32.285 34.311C32.0968 34.7652 31.9999 35.2521 32 35.7438V35.8145C31.9977 36.4788 32.1679 37.1322 32.4939 37.711C32.82 38.2897 33.2906 38.7739 33.8599 39.1162C34.3493 39.4097 34.8738 39.7244 35.3513 40.0108C35.8543 40.3126 36.2706 40.7394 36.5597 41.2497C36.8489 41.7601 37.001 42.3366 37.0012 42.9232L37.0013 43.064C37.0039 43.4482 36.9306 43.8292 36.7855 44.185C36.6404 44.5407 36.4265 44.8644 36.156 45.1372C35.8854 45.41 35.5637 45.6267 35.2091 45.7748C34.8546 45.9229 34.4743 45.9995 34.0901 46.0002H33.9108C33.5284 46.0002 33.1497 46.0755 32.7965 46.2219C32.4432 46.3682 32.1222 46.5827 31.8519 46.8532C31.5815 47.1236 31.3671 47.4446 31.2209 47.798C31.0746 48.1513 30.9994 48.5299 30.9995 48.9123L30.9995 49.0023C31 49.7975 31.3162 50.5601 31.8787 51.1222C32.4411 51.6844 33.2038 52.0001 33.9991 52.0001H43.0225Z" fill="#EEBE33"/>
<path d="M52 30.3425V39H46V39.5C46 39.6326 45.9473 39.7598 45.8535 39.8536C45.7597 39.9473 45.6326 40 45.5 40C45.3674 40 45.2402 39.9473 45.1464 39.8536C45.0526 39.7598 45 39.6326 45 39.5V39.095C44.9881 37.7679 45.4918 36.488 46.405 35.525C46.865 35.0465 47.4162 34.665 48.0261 34.4031C48.636 34.1412 49.2923 34.0042 49.956 34.0002C50.1757 34.0041 50.3914 33.941 50.5743 33.8193C50.7486 33.6973 50.8794 33.5228 50.9478 33.3214C51.0161 33.1199 51.0184 32.9019 50.9544 32.699C50.8903 32.4961 50.7633 32.3189 50.5916 32.1932C50.42 32.0675 50.2127 31.9998 50 32C49.683 31.9999 49.3691 31.9375 49.0762 31.8163C48.7835 31.694 48.5173 31.5162 48.2925 31.2925L48 31L48.2925 30.7075C48.5166 30.4832 48.7828 30.3052 49.0758 30.1838C49.3688 30.0624 49.6828 30 50 30C50.6812 29.9996 51.3576 30.1155 52 30.3425Z" fill="#E88604"/>
<path d="M54.9999 36V52H45.9999V39C45.9997 38.4747 46.1031 37.9545 46.3041 37.4691C46.505 36.9837 46.7997 36.5427 47.1711 36.1713C47.5426 35.7998 47.9836 35.5052 48.469 35.3042C48.9543 35.1032 49.4745 34.9999 49.9999 35C50.5303 35 51.039 34.7893 51.4141 34.4142C51.7892 34.0391 51.9999 33.5304 51.9999 33C51.9999 32.4696 51.7892 31.9609 51.4141 31.5858C51.039 31.2107 50.5303 31 49.9999 31C50.6567 30.9991 51.3074 31.1277 51.9144 31.3787C52.5215 31.6296 53.073 31.9979 53.5375 32.4624C54.002 32.9268 54.3703 33.4784 54.6212 34.0855C54.8721 34.6925 55.0008 35.3431 54.9999 36Z" fill="#EEBE33"/>
<path d="M54.9999 36.0001C54.9999 36.0001 53.4571 43.5778 53.5983 44.0077C53.8424 44.5403 54.1561 45.0383 54.531 45.4885C54.5808 45.549 54.6156 45.6204 54.6326 45.6968C54.6496 45.7733 54.6483 45.8527 54.6288 45.9286C54.6093 46.0045 54.5721 46.0747 54.5203 46.1335C54.4685 46.1923 54.4036 46.238 54.3308 46.2669C54.2322 46.3061 54.1238 46.313 54.0211 46.2865C53.9185 46.26 53.8269 46.2016 53.7596 46.1197C52.4914 44.5696 51.8438 42.6039 51.9423 40.6036C52.0407 38.6033 52.8782 36.7107 54.2924 35.2926L54.8411 34.7439C54.9469 35.1543 55.0002 35.5764 54.9999 36.0001Z" fill="#E88604"/>
<path d="M60.9999 52C61.5252 51.4747 61.9419 50.8511 62.2262 50.1648C62.5104 49.4785 62.6568 48.7429 62.6568 48C62.6568 47.2571 62.5104 46.5215 62.2262 45.8352C61.9419 45.1489 61.5252 44.5253 60.9999 44C60.5403 43.5404 60.1757 42.9947 59.9269 42.3942C59.6782 41.7937 59.5502 41.15 59.5502 40.5C59.5502 39.85 59.6782 39.2063 59.9269 38.6058C60.1757 38.0053 60.5403 37.4596 60.9999 37C61.5252 36.4747 61.9419 35.8511 62.2262 35.1648C62.5104 34.4785 62.6568 33.7429 62.6568 33C62.6568 32.2571 62.5104 31.5215 62.2262 30.8352C61.9419 30.1489 61.5252 29.5253 60.9999 29L59.9999 28C59.7373 27.7374 59.5289 27.4256 59.3868 27.0824C59.2446 26.7392 59.1715 26.3714 59.1715 26C59.1715 25.6286 59.2446 25.2608 59.3868 24.9176C59.5289 24.5744 59.7373 24.2626 59.9999 24L57.2499 26.75C56.7858 27.2141 56.525 27.8436 56.525 28.5C56.525 29.1564 56.7858 29.7859 57.2499 30.25C57.714 30.7141 57.9748 31.3436 57.9748 32C57.9748 32.6564 57.714 33.2859 57.2499 33.75L54.9999 36C54.3433 36.6566 53.8224 37.4361 53.4671 38.294C53.1117 39.1519 52.9288 40.0714 52.9288 41C52.9288 41.9286 53.1117 42.8481 53.4671 43.706C53.8224 44.5639 54.3433 45.3434 54.9999 46V52H60.9999Z" fill="#EEBE33"/>
<path d="M49.2923 44.8788L46.7936 42.38C46.0918 41.6776 45.1632 41.2475 44.1736 41.1663L44.1811 41.2825C44.2398 42.2002 44.6356 43.0638 45.2923 43.7075C45.6351 44.0503 45.8277 44.5152 45.8277 45C45.8277 45.4848 45.6351 45.9497 45.2923 46.2925C44.5755 47.0112 44.173 47.9849 44.173 49C44.173 50.0151 44.5755 50.9888 45.2923 51.7075L45.5848 52H50.9998V49C51.0019 48.2343 50.852 47.4758 50.5589 46.7684C50.2658 46.0609 49.8353 45.4187 49.2923 44.8788ZM48.9998 51H47.4136L46.7073 50.2925C46.3646 49.9497 46.172 49.4848 46.172 49C46.172 48.5152 46.3646 48.0503 46.7073 47.7075C47.1591 47.2557 47.4905 46.6979 47.6711 46.085L47.8786 46.2925C48.235 46.6474 48.5176 47.0694 48.7101 47.5341C48.9025 47.9988 49.001 48.497 48.9998 49V51Z" fill="#E88604"/>
<path d="M46.9999 52L45.9999 51C45.7373 50.7374 45.529 50.4256 45.3868 50.0824C45.2447 49.7392 45.1715 49.3714 45.1715 49C45.1715 48.6286 45.2447 48.2608 45.3868 47.9176C45.529 47.5744 45.7373 47.2626 45.9999 47C46.2626 46.7374 46.4709 46.4256 46.6131 46.0824C46.7552 45.7392 46.8284 45.3714 46.8284 45C46.8284 44.6286 46.7552 44.2608 46.6131 43.9176C46.4709 43.5744 46.2626 43.2626 45.9999 43L48.5857 45.5858C49.0341 46.0341 49.3897 46.5664 49.6324 47.1522C49.875 47.7381 49.9999 48.3659 49.9999 49V52H46.9999Z" fill="#EEBE33"/>
</svg>
