<svg width="96" height="96" viewBox="0 0 96 96" fill="none" xmlns="http://www.w3.org/2000/svg">
<circle cx="48" cy="48" r="48" fill="#FFE8C7"/>
<path d="M43.0528 40.9255H31.7208C30.5829 40.9255 29.6604 40.003 29.6604 38.8652V27.5333C29.6604 26.3954 30.5829 25.4729 31.7208 25.4729H43.0528C44.1906 25.4729 45.1131 26.3954 45.1131 27.5333V38.8653C45.1131 40.0031 44.1908 40.9255 43.0528 40.9255Z" fill="#FFCA28"/>
<path d="M43.0526 25.4729H39.1895C40.3273 25.4729 41.2498 26.3954 41.2498 27.5333V38.8653C41.2498 40.0031 40.3273 40.9256 39.1895 40.9256H43.0526C44.1905 40.9256 45.113 40.0031 45.113 38.8653V27.5333C45.113 26.3953 44.1906 25.4729 43.0526 25.4729Z" fill="#FFB300"/>
<path d="M63.4528 30.8169H55.2113C54.5001 30.8169 53.9236 30.2404 53.9236 29.5291V21.2878C53.9236 20.5765 54.5002 20 55.2113 20H63.4528C64.1641 20 64.7406 20.5765 64.7406 21.2878V29.5293C64.7406 30.2404 64.164 30.8169 63.4528 30.8169Z" fill="#FFCA28"/>
<path d="M63.4527 20H59.5896C60.3008 20 60.8773 20.5765 60.8773 21.2878V29.5293C60.8773 30.2405 60.3008 30.817 59.5896 30.817H63.4527C64.164 30.817 64.7405 30.2405 64.7405 29.5293V21.2878C64.7405 20.5765 64.1638 20 63.4527 20V20Z" fill="#FFB300"/>
<path d="M40.145 57.1509H55.8553V73.8269H40.145V57.1509Z" fill="#D2CFE1"/>
<path d="M51.9919 57.1509H55.8551V73.8269H51.9919V57.1509Z" fill="#E6E6E6"/>
<path d="M21.6016 43.7181L40.1456 60.1773H55.8543L74.3983 43.7181H21.6016Z" fill="#FFB53C"/>
<path d="M70.5352 43.7181L51.9912 60.1773H55.8543L74.3983 43.7181H70.5352Z" fill="#FF995D"/>
<path d="M48.0001 84.0001C49.4225 84.0001 50.5756 82.847 50.5756 81.4246C50.5756 80.0022 49.4225 78.8491 48.0001 78.8491C46.5777 78.8491 45.4246 80.0022 45.4246 81.4246C45.4246 82.847 46.5777 84.0001 48.0001 84.0001Z" fill="#FFCA28"/>
<path d="M57.9155 72.8896H38.0845C37.5667 72.8896 37.147 73.3094 37.147 73.8271C37.147 74.3449 37.5667 74.7646 38.0845 74.7646H57.9155C58.4333 74.7646 58.853 74.3449 58.853 73.8271C58.853 73.3094 58.4333 72.8896 57.9155 72.8896Z" fill="#FF3123"/>
<path d="M74.4444 44.4668H21.5556C20.4894 44.4668 19.625 43.6024 19.625 42.5362V38.4135C19.625 37.3473 20.4894 36.4829 21.5556 36.4829H74.4444C75.5106 36.4829 76.375 37.3473 76.375 38.4135V42.5362C76.375 43.6024 75.5106 44.4668 74.4444 44.4668Z" fill="#FB554A"/>
<path d="M74.4431 36.4829H70.5737C71.6409 36.4829 72.5059 37.3467 72.5059 38.412V42.5377C72.5059 43.603 71.6409 44.4668 70.5737 44.4668H74.4431C75.5102 44.4668 76.3752 43.603 76.3752 42.5377V38.412C76.3752 37.3467 75.5102 36.4829 74.4431 36.4829Z" fill="#FF3123"/>
</svg>
