<svg width="96" height="96" viewBox="0 0 96 96" fill="none" xmlns="http://www.w3.org/2000/svg">
<circle cx="47.9999" cy="48" r="48" fill="white"/>
<path d="M43.0526 40.9255H31.7207C30.5828 40.9255 29.6603 40.003 29.6603 38.8652V27.5333C29.6603 26.3954 30.5828 25.4729 31.7207 25.4729H43.0526C44.1905 25.4729 45.113 26.3954 45.113 27.5333V38.8653C45.113 40.0031 44.1906 40.9255 43.0526 40.9255Z" fill="#FFCA28"/>
<path d="M43.0526 25.4729H39.1895C40.3273 25.4729 41.2498 26.3954 41.2498 27.5333V38.8653C41.2498 40.0031 40.3273 40.9256 39.1895 40.9256H43.0526C44.1905 40.9256 45.113 40.0031 45.113 38.8653V27.5333C45.113 26.3953 44.1906 25.4729 43.0526 25.4729Z" fill="#FFB300"/>
<path d="M63.4527 30.8169H55.2112C54.5 30.8169 53.9235 30.2404 53.9235 29.5291V21.2878C53.9235 20.5765 54.5001 20 55.2112 20H63.4527C64.164 20 64.7405 20.5765 64.7405 21.2878V29.5293C64.7405 30.2404 64.1638 30.8169 63.4527 30.8169Z" fill="#FFCA28"/>
<path d="M63.4526 20H59.5895C60.3007 20 60.8772 20.5765 60.8772 21.2878V29.5293C60.8772 30.2405 60.3007 30.817 59.5895 30.817H63.4526C64.1639 30.817 64.7404 30.2405 64.7404 29.5293V21.2878C64.7404 20.5765 64.1637 20 63.4526 20V20Z" fill="#FFB300"/>
<path d="M40.1448 57.1509H55.855V73.8269H40.1448V57.1509Z" fill="#D2CFE1"/>
<path d="M51.9918 57.1509H55.8549V73.8269H51.9918V57.1509Z" fill="#E6E6E6"/>
<path d="M21.6016 43.718L40.1456 60.1772H55.8543L74.3983 43.718H21.6016Z" fill="#FFB53C"/>
<path d="M70.5352 43.718L51.9912 60.1772H55.8543L74.3983 43.718H70.5352Z" fill="#FF995D"/>
<path d="M47.9998 84.0001C49.4222 84.0001 50.5753 82.847 50.5753 81.4246C50.5753 80.0022 49.4222 78.8491 47.9998 78.8491C46.5774 78.8491 45.4243 80.0022 45.4243 81.4246C45.4243 82.847 46.5774 84.0001 47.9998 84.0001Z" fill="#FFCA28"/>
<path d="M57.9154 72.8896H38.0844C37.5666 72.8896 37.1469 73.3094 37.1469 73.8271C37.1469 74.3449 37.5666 74.7646 38.0844 74.7646H57.9154C58.4332 74.7646 58.8529 74.3449 58.8529 73.8271C58.8529 73.3094 58.4332 72.8896 57.9154 72.8896Z" fill="#FF3123"/>
<path d="M74.4443 44.4668H21.5555C20.4893 44.4668 19.6249 43.6024 19.6249 42.5362V38.4135C19.6249 37.3473 20.4893 36.4829 21.5555 36.4829H74.4443C75.5105 36.4829 76.3749 37.3473 76.3749 38.4135V42.5362C76.3749 43.6024 75.5105 44.4668 74.4443 44.4668Z" fill="#FB554A"/>
<path d="M74.4429 36.4829H70.5735C71.6406 36.4829 72.5056 37.3467 72.5056 38.412V42.5377C72.5056 43.603 71.6406 44.4668 70.5735 44.4668H74.4429C75.51 44.4668 76.375 43.603 76.375 42.5377V38.412C76.375 37.3467 75.51 36.4829 74.4429 36.4829Z" fill="#FF3123"/>
</svg>
